solid OpenSCAD_Model
  facet normal -0.104526 0.994522 0
    outer loop
      vertex 0 50 1.41421
      vertex -10.3956 48.9074 20
      vertex 0 50 20
    endloop
  endfacet
  facet normal -0.104526 0.994522 0
    outer loop
      vertex -10.3956 48.9074 20
      vertex 0 50 1.41421
      vertex -10.3956 48.9074 1.41421
    endloop
  endfacet
  facet normal -0.104526 -0.994522 0
    outer loop
      vertex -10.3956 -48.9074 1.41421
      vertex 0 -50 20
      vertex -10.3956 -48.9074 20
    endloop
  endfacet
  facet normal -0.104526 -0.994522 -0
    outer loop
      vertex 0 -50 20
      vertex -10.3956 -48.9074 1.41421
      vertex 0 -50 1.41421
    endloop
  endfacet
  facet normal -1 0 0
    outer loop
      vertex -49.7261 -5.22642 1.41421
      vertex -49.7261 5.22642 20
      vertex -49.7261 5.22642 1.41421
    endloop
  endfacet
  facet normal -1 -0 0
    outer loop
      vertex -49.7261 5.22642 20
      vertex -49.7261 -5.22642 1.41421
      vertex -49.7261 -5.22642 20
    endloop
  endfacet
  facet normal -0.809013 0.587791 0
    outer loop
      vertex -43.3013 25 1.41421
      vertex -37.1572 33.4565 20
      vertex -37.1572 33.4565 1.41421
    endloop
  endfacet
  facet normal -0.809013 0.587791 0
    outer loop
      vertex -37.1572 33.4565 20
      vertex -43.3013 25 1.41421
      vertex -43.3013 25 20
    endloop
  endfacet
  facet normal -0.669139 -0.743138 0
    outer loop
      vertex -37.1572 -33.4565 1.41421
      vertex -29.3893 -40.4509 20
      vertex -37.1572 -33.4565 20
    endloop
  endfacet
  facet normal -0.669133 -0.743142 -3.99844e-06
    outer loop
      vertex -37.1572 -33.4565 1.41421
      vertex -29.3893 -40.4508 1.41421
      vertex -29.3893 -40.4509 20
    endloop
  endfacet
  facet normal -1 0 0
    outer loop
      vertex -29.3893 -40.4509 20
      vertex -29.3893 -40.4508 1.41421
      vertex -29.3893 -40.4509 1.41421
    endloop
  endfacet
  facet normal -0.499995 -0.866028 0
    outer loop
      vertex -29.3893 -40.4509 20
      vertex -20.3368 -45.6773 1.41421
      vertex -20.3368 -45.6773 20
    endloop
  endfacet
  facet normal -0.499995 -0.866028 -0
    outer loop
      vertex -29.3893 -40.4509 20
      vertex -29.3893 -40.4509 1.41421
      vertex -20.3368 -45.6773 1.41421
    endloop
  endfacet
  facet normal -0.913548 -0.40673 0
    outer loop
      vertex -43.3013 -25 1.41421
      vertex -47.5528 -15.4508 20
      vertex -47.5528 -15.4508 1.41421
    endloop
  endfacet
  facet normal -0.913548 -0.40673 0
    outer loop
      vertex -47.5528 -15.4508 20
      vertex -43.3013 -25 1.41421
      vertex -43.3013 -25 20
    endloop
  endfacet
  facet normal -0.499995 0.866028 0
    outer loop
      vertex -20.3368 45.6773 1.41421
      vertex -29.3893 40.4509 20
      vertex -20.3368 45.6773 20
    endloop
  endfacet
  facet normal -0.5 0.866026 -2.69023e-06
    outer loop
      vertex -29.3892 40.4509 1.41421
      vertex -29.3893 40.4509 20
      vertex -20.3368 45.6773 1.41421
    endloop
  endfacet
  facet normal 0 1 0
    outer loop
      vertex -29.3893 40.4509 20
      vertex -29.3892 40.4509 1.41421
      vertex -29.3893 40.4509 1.41421
    endloop
  endfacet
  facet normal -0.309018 0.951056 0
    outer loop
      vertex -10.3956 48.9074 1.41421
      vertex -20.3368 45.6773 20
      vertex -10.3956 48.9074 20
    endloop
  endfacet
  facet normal -0.309018 0.951056 0
    outer loop
      vertex -20.3368 45.6773 20
      vertex -10.3956 48.9074 1.41421
      vertex -20.3368 45.6773 1.41421
    endloop
  endfacet
  facet normal -0.669139 0.743138 0
    outer loop
      vertex -37.1572 33.4565 1.41421
      vertex -37.1572 33.4565 20
      vertex -29.3893 40.4509 20
    endloop
  endfacet
  facet normal -0.669139 0.743138 0
    outer loop
      vertex -37.1572 33.4565 1.41421
      vertex -29.3893 40.4509 20
      vertex -29.3893 40.4509 1.41421
    endloop
  endfacet
  facet normal -0.978146 0.207921 0
    outer loop
      vertex -47.5528 15.4508 1.41421
      vertex -48.7687 9.73071 1.41421
      vertex -47.5528 15.4508 20
    endloop
  endfacet
  facet normal -0.978148 0.207908 0
    outer loop
      vertex -49.7261 5.22642 20
      vertex -48.7687 9.73071 1.41421
      vertex -49.7261 5.22642 1.41421
    endloop
  endfacet
  facet normal -0.978147 0.207915 1.81211e-06
    outer loop
      vertex -48.7687 9.73071 1.41421
      vertex -49.7261 5.22642 20
      vertex -47.5528 15.4508 20
    endloop
  endfacet
  facet normal -0.913547 0.406734 0
    outer loop
      vertex -47.5528 15.4509 1.41421
      vertex -43.3013 25 20
      vertex -43.3013 25 1.41421
    endloop
  endfacet
  facet normal -1 0 0
    outer loop
      vertex -47.5528 15.4508 20
      vertex -47.5528 15.4509 1.41421
      vertex -47.5528 15.4508 1.41421
    endloop
  endfacet
  facet normal -0.913548 0.40673 2.18839e-06
    outer loop
      vertex -47.5528 15.4509 1.41421
      vertex -47.5528 15.4508 20
      vertex -43.3013 25 20
    endloop
  endfacet
  facet normal -0.309018 -0.951056 0
    outer loop
      vertex -20.3368 -45.6773 1.41421
      vertex -10.3956 -48.9074 20
      vertex -20.3368 -45.6773 20
    endloop
  endfacet
  facet normal -0.309018 -0.951056 -0
    outer loop
      vertex -10.3956 -48.9074 20
      vertex -20.3368 -45.6773 1.41421
      vertex -10.3956 -48.9074 1.41421
    endloop
  endfacet
  facet normal 0 0 1
    outer loop
      vertex 24.863 2.61321 20
      vertex 49.7261 5.22642 20
      vertex 47.5528 15.4508 20
    endloop
  endfacet
  facet normal 0 0 1
    outer loop
      vertex 49.7261 5.22642 20
      vertex 24.863 2.61321 20
      vertex 49.7261 -5.22642 20
    endloop
  endfacet
  facet normal 0 0 1
    outer loop
      vertex 23.7764 7.72542 20
      vertex 47.5528 15.4508 20
      vertex 43.3013 25 20
    endloop
  endfacet
  facet normal -0 0 1
    outer loop
      vertex 24.863 -2.61321 20
      vertex 49.7261 -5.22642 20
      vertex 24.863 2.61321 20
    endloop
  endfacet
  facet normal 0 0 1
    outer loop
      vertex 21.6506 12.5 20
      vertex 43.3013 25 20
      vertex 37.1572 33.4565 20
    endloop
  endfacet
  facet normal 0 0 1
    outer loop
      vertex 49.7261 -5.22642 20
      vertex 24.863 -2.61321 20
      vertex 47.5528 -15.4508 20
    endloop
  endfacet
  facet normal 0 0 1
    outer loop
      vertex 18.5786 16.7283 20
      vertex 37.1572 33.4565 20
      vertex 29.3893 40.4509 20
    endloop
  endfacet
  facet normal -0 0 1
    outer loop
      vertex 23.7764 -7.72542 20
      vertex 47.5528 -15.4508 20
      vertex 24.863 -2.61321 20
    endloop
  endfacet
  facet normal 0 0 1
    outer loop
      vertex 47.5528 -15.4508 20
      vertex 23.7764 -7.72542 20
      vertex 43.3013 -25 20
    endloop
  endfacet
  facet normal 0 0 1
    outer loop
      vertex 47.5528 15.4508 20
      vertex 23.7764 7.72542 20
      vertex 24.863 2.61321 20
    endloop
  endfacet
  facet normal 0 0 1
    outer loop
      vertex 43.3013 25 20
      vertex 21.6506 12.5 20
      vertex 23.7764 7.72542 20
    endloop
  endfacet
  facet normal 0 0 1
    outer loop
      vertex 14.6946 20.2254 20
      vertex 29.3893 40.4509 20
      vertex 20.3368 45.6773 20
    endloop
  endfacet
  facet normal 0 0 1
    outer loop
      vertex 37.1572 33.4565 20
      vertex 18.5786 16.7283 20
      vertex 21.6506 12.5 20
    endloop
  endfacet
  facet normal 0 0 1
    outer loop
      vertex 29.3893 40.4509 20
      vertex 14.6946 20.2254 20
      vertex 18.5786 16.7283 20
    endloop
  endfacet
  facet normal 0 0 1
    outer loop
      vertex 10.1684 22.8386 20
      vertex 20.3368 45.6773 20
      vertex 10.3956 48.9074 20
    endloop
  endfacet
  facet normal 0 0 1
    outer loop
      vertex 20.3368 45.6773 20
      vertex 10.1684 22.8386 20
      vertex 14.6946 20.2254 20
    endloop
  endfacet
  facet normal 0 0 1
    outer loop
      vertex 10.3956 48.9074 20
      vertex 5.19779 24.4537 20
      vertex 10.1684 22.8386 20
    endloop
  endfacet
  facet normal 0 0 1
    outer loop
      vertex 0 50 20
      vertex 5.19779 24.4537 20
      vertex 10.3956 48.9074 20
    endloop
  endfacet
  facet normal 0 0 1
    outer loop
      vertex 0 50 20
      vertex 0 25 20
      vertex 5.19779 24.4537 20
    endloop
  endfacet
  facet normal 0 0 1
    outer loop
      vertex 0 50 20
      vertex -5.19779 24.4537 20
      vertex 0 25 20
    endloop
  endfacet
  facet normal -0 0 1
    outer loop
      vertex -10.3956 48.9074 20
      vertex -5.19779 24.4537 20
      vertex 0 50 20
    endloop
  endfacet
  facet normal 0 0 1
    outer loop
      vertex -5.19779 24.4537 20
      vertex -10.3956 48.9074 20
      vertex -10.1684 22.8386 20
    endloop
  endfacet
  facet normal -0 0 1
    outer loop
      vertex -20.3368 45.6773 20
      vertex -10.1684 22.8386 20
      vertex -10.3956 48.9074 20
    endloop
  endfacet
  facet normal 0 0 1
    outer loop
      vertex -10.1684 22.8386 20
      vertex -20.3368 45.6773 20
      vertex -14.6946 20.2254 20
    endloop
  endfacet
  facet normal -0 0 1
    outer loop
      vertex -29.3893 40.4509 20
      vertex -14.6946 20.2254 20
      vertex -20.3368 45.6773 20
    endloop
  endfacet
  facet normal 0 0 1
    outer loop
      vertex -14.6946 20.2254 20
      vertex -29.3893 40.4509 20
      vertex -18.5786 16.7283 20
    endloop
  endfacet
  facet normal -0 0 1
    outer loop
      vertex -37.1572 33.4565 20
      vertex -18.5786 16.7283 20
      vertex -29.3893 40.4509 20
    endloop
  endfacet
  facet normal 0 0 1
    outer loop
      vertex -18.5786 16.7283 20
      vertex -37.1572 33.4565 20
      vertex -21.6506 12.5 20
    endloop
  endfacet
  facet normal 0 0 1
    outer loop
      vertex -21.6506 12.5 20
      vertex -43.3013 25 20
      vertex -23.7764 7.72542 20
    endloop
  endfacet
  facet normal -0 0 1
    outer loop
      vertex -43.3013 25 20
      vertex -21.6506 12.5 20
      vertex -37.1572 33.4565 20
    endloop
  endfacet
  facet normal -0 0 1
    outer loop
      vertex 21.6506 -12.5 20
      vertex 43.3013 -25 20
      vertex 23.7764 -7.72542 20
    endloop
  endfacet
  facet normal 0 0 1
    outer loop
      vertex 43.3013 -25 20
      vertex 21.6506 -12.5 20
      vertex 37.1572 -33.4565 20
    endloop
  endfacet
  facet normal -0 0 1
    outer loop
      vertex 18.5786 -16.7283 20
      vertex 37.1572 -33.4565 20
      vertex 21.6506 -12.5 20
    endloop
  endfacet
  facet normal 0 0 1
    outer loop
      vertex 37.1572 -33.4565 20
      vertex 18.5786 -16.7283 20
      vertex 29.3893 -40.4509 20
    endloop
  endfacet
  facet normal -0 0 1
    outer loop
      vertex 14.6946 -20.2254 20
      vertex 29.3893 -40.4509 20
      vertex 18.5786 -16.7283 20
    endloop
  endfacet
  facet normal 0 0 1
    outer loop
      vertex 29.3893 -40.4509 20
      vertex 14.6946 -20.2254 20
      vertex 20.3368 -45.6773 20
    endloop
  endfacet
  facet normal -0 0 1
    outer loop
      vertex 10.1684 -22.8386 20
      vertex 20.3368 -45.6773 20
      vertex 14.6946 -20.2254 20
    endloop
  endfacet
  facet normal 0 0 1
    outer loop
      vertex 20.3368 -45.6773 20
      vertex 10.1684 -22.8386 20
      vertex 10.3956 -48.9074 20
    endloop
  endfacet
  facet normal -0 0 1
    outer loop
      vertex 5.19779 -24.4537 20
      vertex 10.3956 -48.9074 20
      vertex 10.1684 -22.8386 20
    endloop
  endfacet
  facet normal -0 0 1
    outer loop
      vertex 0 -25 20
      vertex 10.3956 -48.9074 20
      vertex 5.19779 -24.4537 20
    endloop
  endfacet
  facet normal 0 0 1
    outer loop
      vertex 0 -25 20
      vertex 0 -50 20
      vertex 10.3956 -48.9074 20
    endloop
  endfacet
  facet normal 0 0 1
    outer loop
      vertex -5.19779 -24.4537 20
      vertex 0 -50 20
      vertex 0 -25 20
    endloop
  endfacet
  facet normal 0 0 1
    outer loop
      vertex -10.3956 -48.9074 20
      vertex -5.19779 -24.4537 20
      vertex -10.1684 -22.8386 20
    endloop
  endfacet
  facet normal 0 0 1
    outer loop
      vertex -5.19779 -24.4537 20
      vertex -10.3956 -48.9074 20
      vertex 0 -50 20
    endloop
  endfacet
  facet normal 0 0 1
    outer loop
      vertex -20.3368 -45.6773 20
      vertex -10.1684 -22.8386 20
      vertex -14.6946 -20.2254 20
    endloop
  endfacet
  facet normal 0 0 1
    outer loop
      vertex -29.3893 -40.4509 20
      vertex -14.6946 -20.2254 20
      vertex -18.5786 -16.7283 20
    endloop
  endfacet
  facet normal 0 0 1
    outer loop
      vertex -10.1684 -22.8386 20
      vertex -20.3368 -45.6773 20
      vertex -10.3956 -48.9074 20
    endloop
  endfacet
  facet normal 0 0 1
    outer loop
      vertex -37.1572 -33.4565 20
      vertex -18.5786 -16.7283 20
      vertex -21.6506 -12.5 20
    endloop
  endfacet
  facet normal 0 0 1
    outer loop
      vertex -43.3013 -25 20
      vertex -21.6506 -12.5 20
      vertex -23.7764 -7.72542 20
    endloop
  endfacet
  facet normal 0 0 1
    outer loop
      vertex -47.5528 -15.4508 20
      vertex -23.7764 -7.72542 20
      vertex -24.863 -2.61321 20
    endloop
  endfacet
  facet normal -0 0 1
    outer loop
      vertex -47.5528 15.4508 20
      vertex -23.7764 7.72542 20
      vertex -43.3013 25 20
    endloop
  endfacet
  facet normal 0 0 1
    outer loop
      vertex -14.6946 -20.2254 20
      vertex -29.3893 -40.4509 20
      vertex -20.3368 -45.6773 20
    endloop
  endfacet
  facet normal 0 0 1
    outer loop
      vertex -23.7764 7.72542 20
      vertex -47.5528 15.4508 20
      vertex -24.863 2.61321 20
    endloop
  endfacet
  facet normal 0 0 1
    outer loop
      vertex -18.5786 -16.7283 20
      vertex -37.1572 -33.4565 20
      vertex -29.3893 -40.4509 20
    endloop
  endfacet
  facet normal -0 0 1
    outer loop
      vertex -49.7261 5.22642 20
      vertex -24.863 2.61321 20
      vertex -47.5528 15.4508 20
    endloop
  endfacet
  facet normal 0 0 1
    outer loop
      vertex -21.6506 -12.5 20
      vertex -43.3013 -25 20
      vertex -37.1572 -33.4565 20
    endloop
  endfacet
  facet normal 0 0 1
    outer loop
      vertex -24.863 2.61321 20
      vertex -49.7261 5.22642 20
      vertex -24.863 -2.61321 20
    endloop
  endfacet
  facet normal 0 0 1
    outer loop
      vertex -23.7764 -7.72542 20
      vertex -47.5528 -15.4508 20
      vertex -43.3013 -25 20
    endloop
  endfacet
  facet normal 0 0 1
    outer loop
      vertex -49.7261 -5.22642 20
      vertex -24.863 -2.61321 20
      vertex -49.7261 5.22642 20
    endloop
  endfacet
  facet normal 0 0 1
    outer loop
      vertex -24.863 -2.61321 20
      vertex -49.7261 -5.22642 20
      vertex -47.5528 -15.4508 20
    endloop
  endfacet
  facet normal -0.809013 -0.587791 0
    outer loop
      vertex -37.1572 -33.4565 1.41421
      vertex -43.3013 -25 20
      vertex -43.3013 -25 1.41421
    endloop
  endfacet
  facet normal -0.809013 -0.587791 0
    outer loop
      vertex -37.1572 -33.4565 1.41421
      vertex -37.1572 -33.4565 20
      vertex -43.3013 -25 20
    endloop
  endfacet
  facet normal -1 0 0
    outer loop
      vertex -49.7261 -5.22643 1.41421
      vertex -49.7261 -5.22642 20
      vertex -49.7261 -5.22642 1.41421
    endloop
  endfacet
  facet normal -0.978148 -0.207909 1.11864e-07
    outer loop
      vertex -48.7687 -9.73071 1.41421
      vertex -49.7261 -5.22642 20
      vertex -49.7261 -5.22643 1.41421
    endloop
  endfacet
  facet normal -0.978146 -0.207921 -0
    outer loop
      vertex -47.5528 -15.4508 20
      vertex -48.7687 -9.73071 1.41421
      vertex -47.5528 -15.4508 1.41421
    endloop
  endfacet
  facet normal -0.978147 -0.207915 1.81211e-06
    outer loop
      vertex -48.7687 -9.73071 1.41421
      vertex -47.5528 -15.4508 20
      vertex -49.7261 -5.22642 20
    endloop
  endfacet
  facet normal 0.104526 0.994522 -0
    outer loop
      vertex 10.3956 48.9074 1.41421
      vertex 0 50 20
      vertex 10.3956 48.9074 20
    endloop
  endfacet
  facet normal 0.104526 0.994522 0
    outer loop
      vertex 0 50 20
      vertex 10.3956 48.9074 1.41421
      vertex 0 50 1.41421
    endloop
  endfacet
  facet normal 0.978148 -0.207908 0
    outer loop
      vertex 49.7261 -5.22642 20
      vertex 48.7687 -9.73071 1.41421
      vertex 49.7261 -5.22642 1.41421
    endloop
  endfacet
  facet normal 0.978147 -0.207915 1.81211e-06
    outer loop
      vertex 47.5528 -15.4508 20
      vertex 48.7687 -9.73071 1.41421
      vertex 49.7261 -5.22642 20
    endloop
  endfacet
  facet normal 0.978146 -0.207921 0
    outer loop
      vertex 47.5528 -15.4508 1.41421
      vertex 48.7687 -9.73071 1.41421
      vertex 47.5528 -15.4508 20
    endloop
  endfacet
  facet normal 0.669139 0.743138 -0
    outer loop
      vertex 37.1572 33.4565 1.41421
      vertex 29.3893 40.4509 20
      vertex 37.1572 33.4565 20
    endloop
  endfacet
  facet normal 0.669133 0.743142 -3.99844e-06
    outer loop
      vertex 37.1572 33.4565 1.41421
      vertex 29.3893 40.4508 1.41421
      vertex 29.3893 40.4509 20
    endloop
  endfacet
  facet normal 1 0 0
    outer loop
      vertex 29.3893 40.4509 20
      vertex 29.3893 40.4508 1.41421
      vertex 29.3893 40.4509 1.41421
    endloop
  endfacet
  facet normal 0.309018 0.951056 -0
    outer loop
      vertex 20.3368 45.6773 1.41421
      vertex 10.3956 48.9074 20
      vertex 20.3368 45.6773 20
    endloop
  endfacet
  facet normal 0.309018 0.951056 0
    outer loop
      vertex 10.3956 48.9074 20
      vertex 20.3368 45.6773 1.41421
      vertex 10.3956 48.9074 1.41421
    endloop
  endfacet
  facet normal 0.499995 0.866028 0
    outer loop
      vertex 29.3893 40.4509 20
      vertex 20.3368 45.6773 1.41421
      vertex 20.3368 45.6773 20
    endloop
  endfacet
  facet normal 0.499995 0.866028 0
    outer loop
      vertex 29.3893 40.4509 20
      vertex 29.3893 40.4509 1.41421
      vertex 20.3368 45.6773 1.41421
    endloop
  endfacet
  facet normal 0.499995 -0.866028 0
    outer loop
      vertex 20.3368 -45.6773 1.41421
      vertex 29.3893 -40.4509 20
      vertex 20.3368 -45.6773 20
    endloop
  endfacet
  facet normal 0.5 -0.866026 -2.69023e-06
    outer loop
      vertex 29.3892 -40.4509 1.41421
      vertex 29.3893 -40.4509 20
      vertex 20.3368 -45.6773 1.41421
    endloop
  endfacet
  facet normal 0 -1 -0
    outer loop
      vertex 29.3893 -40.4509 20
      vertex 29.3892 -40.4509 1.41421
      vertex 29.3893 -40.4509 1.41421
    endloop
  endfacet
  facet normal 0.104526 -0.994522 0
    outer loop
      vertex 0 -50 1.41421
      vertex 10.3956 -48.9074 20
      vertex 0 -50 20
    endloop
  endfacet
  facet normal 0.104526 -0.994522 0
    outer loop
      vertex 10.3956 -48.9074 20
      vertex 0 -50 1.41421
      vertex 10.3956 -48.9074 1.41421
    endloop
  endfacet
  facet normal 0.309018 -0.951056 0
    outer loop
      vertex 10.3956 -48.9074 1.41421
      vertex 20.3368 -45.6773 20
      vertex 10.3956 -48.9074 20
    endloop
  endfacet
  facet normal 0.309018 -0.951056 0
    outer loop
      vertex 20.3368 -45.6773 20
      vertex 10.3956 -48.9074 1.41421
      vertex 20.3368 -45.6773 1.41421
    endloop
  endfacet
  facet normal 0.978146 0.207921 0
    outer loop
      vertex 47.5528 15.4508 20
      vertex 48.7687 9.73071 1.41421
      vertex 47.5528 15.4508 1.41421
    endloop
  endfacet
  facet normal 0.978147 0.207915 1.81211e-06
    outer loop
      vertex 49.7261 5.22642 20
      vertex 48.7687 9.73071 1.41421
      vertex 47.5528 15.4508 20
    endloop
  endfacet
  facet normal 0.978148 0.207909 1.11864e-07
    outer loop
      vertex 48.7687 9.73071 1.41421
      vertex 49.7261 5.22642 20
      vertex 49.7261 5.22643 1.41421
    endloop
  endfacet
  facet normal 1 0 0
    outer loop
      vertex 49.7261 5.22643 1.41421
      vertex 49.7261 5.22642 20
      vertex 49.7261 5.22642 1.41421
    endloop
  endfacet
  facet normal 0.809013 0.587791 0
    outer loop
      vertex 43.3013 25 20
      vertex 37.1572 33.4565 1.41421
      vertex 37.1572 33.4565 20
    endloop
  endfacet
  facet normal 0.809013 0.587791 0
    outer loop
      vertex 37.1572 33.4565 1.41421
      vertex 43.3013 25 20
      vertex 43.3013 25 1.41421
    endloop
  endfacet
  facet normal 1 -0 0
    outer loop
      vertex 49.7261 -5.22642 20
      vertex 49.7261 5.22642 1.41421
      vertex 49.7261 5.22642 20
    endloop
  endfacet
  facet normal 1 0 0
    outer loop
      vertex 49.7261 5.22642 1.41421
      vertex 49.7261 -5.22642 20
      vertex 49.7261 -5.22642 1.41421
    endloop
  endfacet
  facet normal 1 0 0
    outer loop
      vertex 47.5528 -15.4508 20
      vertex 47.5528 -15.4509 1.41421
      vertex 47.5528 -15.4508 1.41421
    endloop
  endfacet
  facet normal 0.913548 -0.40673 2.18839e-06
    outer loop
      vertex 43.3013 -25 20
      vertex 47.5528 -15.4509 1.41421
      vertex 47.5528 -15.4508 20
    endloop
  endfacet
  facet normal 0.913547 -0.406734 0
    outer loop
      vertex 47.5528 -15.4509 1.41421
      vertex 43.3013 -25 20
      vertex 43.3013 -25 1.41421
    endloop
  endfacet
  facet normal 0.669139 -0.743138 0
    outer loop
      vertex 37.1572 -33.4565 1.41421
      vertex 37.1572 -33.4565 20
      vertex 29.3893 -40.4509 20
    endloop
  endfacet
  facet normal 0.669139 -0.743138 0
    outer loop
      vertex 37.1572 -33.4565 1.41421
      vertex 29.3893 -40.4509 20
      vertex 29.3893 -40.4509 1.41421
    endloop
  endfacet
  facet normal 0 0 -1
    outer loop
      vertex 22.3767 -2.35189 0
      vertex 48.3196 -5.0786 0
      vertex 46.2078 -15.0138 0
    endloop
  endfacet
  facet normal 0 0 -1
    outer loop
      vertex 48.3196 -5.0786 0
      vertex 22.3767 -2.35189 0
      vertex 48.3196 5.0786 0
    endloop
  endfacet
  facet normal 0 0 -1
    outer loop
      vertex 21.3988 -6.95288 0
      vertex 46.2078 -15.0138 0
      vertex 42.0765 -24.2929 0
    endloop
  endfacet
  facet normal 0 0 -1
    outer loop
      vertex 22.3767 2.35189 0
      vertex 48.3196 5.0786 0
      vertex 22.3767 -2.35189 0
    endloop
  endfacet
  facet normal 0 0 -1
    outer loop
      vertex 19.4856 -11.25 0
      vertex 42.0765 -24.2929 0
      vertex 36.1063 -32.5102 0
    endloop
  endfacet
  facet normal -0 0 -1
    outer loop
      vertex 48.3196 5.0786 0
      vertex 22.3767 2.35189 0
      vertex 46.2078 15.0138 0
    endloop
  endfacet
  facet normal 0 0 -1
    outer loop
      vertex 16.7208 -15.0554 0
      vertex 36.1063 -32.5102 0
      vertex 28.558 -39.3067 0
    endloop
  endfacet
  facet normal 0 0 -1
    outer loop
      vertex 21.3988 6.95288 0
      vertex 46.2078 15.0138 0
      vertex 22.3767 2.35189 0
    endloop
  endfacet
  facet normal -0 0 -1
    outer loop
      vertex 46.2078 15.0138 0
      vertex 21.3988 6.95288 0
      vertex 42.0765 24.2929 0
    endloop
  endfacet
  facet normal 0 0 -1
    outer loop
      vertex 46.2078 -15.0138 0
      vertex 21.3988 -6.95288 0
      vertex 22.3767 -2.35189 0
    endloop
  endfacet
  facet normal 0 0 -1
    outer loop
      vertex 13.2252 -18.2029 0
      vertex 28.558 -39.3067 0
      vertex 19.7616 -44.3853 0
    endloop
  endfacet
  facet normal 0 0 -1
    outer loop
      vertex 42.0765 -24.2929 0
      vertex 19.4856 -11.25 0
      vertex 21.3988 -6.95288 0
    endloop
  endfacet
  facet normal 0 0 -1
    outer loop
      vertex 36.1063 -32.5102 0
      vertex 16.7208 -15.0554 0
      vertex 19.4856 -11.25 0
    endloop
  endfacet
  facet normal 0 0 -1
    outer loop
      vertex 28.558 -39.3067 0
      vertex 13.2252 -18.2029 0
      vertex 16.7208 -15.0554 0
    endloop
  endfacet
  facet normal 0 0 -1
    outer loop
      vertex 9.15157 -20.5548 0
      vertex 19.7616 -44.3853 0
      vertex 10.1016 -47.5241 0
    endloop
  endfacet
  facet normal 0 0 -1
    outer loop
      vertex 19.7616 -44.3853 0
      vertex 9.15157 -20.5548 0
      vertex 13.2252 -18.2029 0
    endloop
  endfacet
  facet normal 0 0 -1
    outer loop
      vertex 10.1016 -47.5241 0
      vertex 4.67801 -22.0083 0
      vertex 9.15157 -20.5548 0
    endloop
  endfacet
  facet normal 0 0 -1
    outer loop
      vertex 0 -48.5858 0
      vertex 4.67801 -22.0083 0
      vertex 10.1016 -47.5241 0
    endloop
  endfacet
  facet normal 0 0 -1
    outer loop
      vertex 0 -48.5858 0
      vertex 0 -22.5 0
      vertex 4.67801 -22.0083 0
    endloop
  endfacet
  facet normal 0 0 -1
    outer loop
      vertex 0 -48.5858 0
      vertex -4.67801 -22.0083 0
      vertex 0 -22.5 0
    endloop
  endfacet
  facet normal 0 0 -1
    outer loop
      vertex -10.1016 -47.5241 0
      vertex -4.67801 -22.0083 0
      vertex 0 -48.5858 0
    endloop
  endfacet
  facet normal -0 0 -1
    outer loop
      vertex -4.67801 -22.0083 0
      vertex -10.1016 -47.5241 0
      vertex -9.15157 -20.5548 0
    endloop
  endfacet
  facet normal 0 0 -1
    outer loop
      vertex -19.7616 -44.3853 0
      vertex -9.15157 -20.5548 0
      vertex -10.1016 -47.5241 0
    endloop
  endfacet
  facet normal -0 0 -1
    outer loop
      vertex -9.15157 -20.5548 0
      vertex -19.7616 -44.3853 0
      vertex -13.2252 -18.2029 0
    endloop
  endfacet
  facet normal 0 0 -1
    outer loop
      vertex -28.558 -39.3067 0
      vertex -13.2252 -18.2029 0
      vertex -19.7616 -44.3853 0
    endloop
  endfacet
  facet normal -0 0 -1
    outer loop
      vertex -13.2252 -18.2029 0
      vertex -28.558 -39.3067 0
      vertex -16.7208 -15.0554 0
    endloop
  endfacet
  facet normal 0 0 -1
    outer loop
      vertex -36.1063 -32.5102 0
      vertex -16.7208 -15.0554 0
      vertex -28.558 -39.3067 0
    endloop
  endfacet
  facet normal -0 0 -1
    outer loop
      vertex -16.7208 -15.0554 0
      vertex -36.1063 -32.5102 0
      vertex -19.4856 -11.25 0
    endloop
  endfacet
  facet normal -0 0 -1
    outer loop
      vertex -19.4856 -11.25 0
      vertex -42.0765 -24.2929 0
      vertex -21.3988 -6.95288 0
    endloop
  endfacet
  facet normal 0 0 -1
    outer loop
      vertex -42.0765 -24.2929 0
      vertex -19.4856 -11.25 0
      vertex -36.1063 -32.5102 0
    endloop
  endfacet
  facet normal 0 0 -1
    outer loop
      vertex 19.4856 11.25 0
      vertex 42.0765 24.2929 0
      vertex 21.3988 6.95288 0
    endloop
  endfacet
  facet normal -0 0 -1
    outer loop
      vertex 42.0765 24.2929 0
      vertex 19.4856 11.25 0
      vertex 36.1063 32.5102 0
    endloop
  endfacet
  facet normal 0 0 -1
    outer loop
      vertex 16.7208 15.0554 0
      vertex 36.1063 32.5102 0
      vertex 19.4856 11.25 0
    endloop
  endfacet
  facet normal -0 0 -1
    outer loop
      vertex 36.1063 32.5102 0
      vertex 16.7208 15.0554 0
      vertex 28.558 39.3067 0
    endloop
  endfacet
  facet normal 0 0 -1
    outer loop
      vertex 13.2252 18.2029 0
      vertex 28.558 39.3067 0
      vertex 16.7208 15.0554 0
    endloop
  endfacet
  facet normal -0 0 -1
    outer loop
      vertex 28.558 39.3067 0
      vertex 13.2252 18.2029 0
      vertex 19.7616 44.3853 0
    endloop
  endfacet
  facet normal 0 0 -1
    outer loop
      vertex 9.15157 20.5548 0
      vertex 19.7616 44.3853 0
      vertex 13.2252 18.2029 0
    endloop
  endfacet
  facet normal -0 0 -1
    outer loop
      vertex 19.7616 44.3853 0
      vertex 9.15157 20.5548 0
      vertex 10.1016 47.5241 0
    endloop
  endfacet
  facet normal 0 0 -1
    outer loop
      vertex 4.67801 22.0083 0
      vertex 10.1016 47.5241 0
      vertex 9.15157 20.5548 0
    endloop
  endfacet
  facet normal 0 0 -1
    outer loop
      vertex 0 22.5 0
      vertex 10.1016 47.5241 0
      vertex 4.67801 22.0083 0
    endloop
  endfacet
  facet normal 0 0 -1
    outer loop
      vertex 0 22.5 0
      vertex 0 48.5858 0
      vertex 10.1016 47.5241 0
    endloop
  endfacet
  facet normal 0 0 -1
    outer loop
      vertex -4.67801 22.0083 0
      vertex 0 48.5858 0
      vertex 0 22.5 0
    endloop
  endfacet
  facet normal 0 0 -1
    outer loop
      vertex -10.1016 47.5241 0
      vertex -4.67801 22.0083 0
      vertex -9.15157 20.5548 0
    endloop
  endfacet
  facet normal 0 0 -1
    outer loop
      vertex -4.67801 22.0083 0
      vertex -10.1016 47.5241 0
      vertex 0 48.5858 0
    endloop
  endfacet
  facet normal 0 0 -1
    outer loop
      vertex -19.7616 44.3853 0
      vertex -9.15157 20.5548 0
      vertex -13.2252 18.2029 0
    endloop
  endfacet
  facet normal 0 0 -1
    outer loop
      vertex -28.558 39.3067 0
      vertex -13.2252 18.2029 0
      vertex -16.7208 15.0554 0
    endloop
  endfacet
  facet normal 0 0 -1
    outer loop
      vertex -36.1063 32.5102 0
      vertex -16.7208 15.0554 0
      vertex -19.4856 11.25 0
    endloop
  endfacet
  facet normal 0 0 -1
    outer loop
      vertex -9.15157 20.5548 0
      vertex -19.7616 44.3853 0
      vertex -10.1016 47.5241 0
    endloop
  endfacet
  facet normal 0 0 -1
    outer loop
      vertex -42.0765 24.2929 0
      vertex -19.4856 11.25 0
      vertex -21.3988 6.95288 0
    endloop
  endfacet
  facet normal 0 0 -1
    outer loop
      vertex -46.2078 15.0138 0
      vertex -21.3988 6.95288 0
      vertex -22.3767 2.35189 0
    endloop
  endfacet
  facet normal 0 0 -1
    outer loop
      vertex -46.2078 -15.0138 0
      vertex -21.3988 -6.95288 0
      vertex -42.0765 -24.2929 0
    endloop
  endfacet
  facet normal 0 0 -1
    outer loop
      vertex -13.2252 18.2029 0
      vertex -28.558 39.3067 0
      vertex -19.7616 44.3853 0
    endloop
  endfacet
  facet normal -0 0 -1
    outer loop
      vertex -21.3988 -6.95288 0
      vertex -46.2078 -15.0138 0
      vertex -22.3767 -2.35189 0
    endloop
  endfacet
  facet normal 0 0 -1
    outer loop
      vertex -16.7208 15.0554 0
      vertex -36.1063 32.5102 0
      vertex -28.558 39.3067 0
    endloop
  endfacet
  facet normal 0 0 -1
    outer loop
      vertex -48.3196 -5.0786 0
      vertex -22.3767 -2.35189 0
      vertex -46.2078 -15.0138 0
    endloop
  endfacet
  facet normal 0 0 -1
    outer loop
      vertex -19.4856 11.25 0
      vertex -42.0765 24.2929 0
      vertex -36.1063 32.5102 0
    endloop
  endfacet
  facet normal -0 0 -1
    outer loop
      vertex -22.3767 -2.35189 0
      vertex -48.3196 -5.0786 0
      vertex -22.3767 2.35189 0
    endloop
  endfacet
  facet normal 0 0 -1
    outer loop
      vertex -21.3988 6.95288 0
      vertex -46.2078 15.0138 0
      vertex -42.0765 24.2929 0
    endloop
  endfacet
  facet normal 0 0 -1
    outer loop
      vertex -48.3196 5.0786 0
      vertex -22.3767 2.35189 0
      vertex -48.3196 -5.0786 0
    endloop
  endfacet
  facet normal 0 0 -1
    outer loop
      vertex -22.3767 2.35189 0
      vertex -48.3196 5.0786 0
      vertex -46.2078 15.0138 0
    endloop
  endfacet
  facet normal 0.913548 0.40673 0
    outer loop
      vertex 47.5528 15.4508 20
      vertex 43.3013 25 1.41421
      vertex 43.3013 25 20
    endloop
  endfacet
  facet normal 0.913548 0.40673 0
    outer loop
      vertex 43.3013 25 1.41421
      vertex 47.5528 15.4508 20
      vertex 47.5528 15.4508 1.41421
    endloop
  endfacet
  facet normal 0.809013 -0.587791 0
    outer loop
      vertex 37.1572 -33.4565 20
      vertex 43.3013 -25 1.41421
      vertex 43.3013 -25 20
    endloop
  endfacet
  facet normal 0.809013 -0.587791 0
    outer loop
      vertex 43.3013 -25 1.41421
      vertex 37.1572 -33.4565 20
      vertex 37.1572 -33.4565 1.41421
    endloop
  endfacet
  facet normal -0.499998 0.866026 0
    outer loop
      vertex -9.15157 20.5548 -20
      vertex -13.2252 18.2029 0
      vertex -9.15157 20.5548 0
    endloop
  endfacet
  facet normal -0.499998 0.866026 0
    outer loop
      vertex -13.2252 18.2029 0
      vertex -9.15157 20.5548 -20
      vertex -13.2252 18.2029 -20
    endloop
  endfacet
  facet normal -0.309008 0.95106 0
    outer loop
      vertex -4.67801 22.0083 -20
      vertex -9.15157 20.5548 0
      vertex -4.67801 22.0083 0
    endloop
  endfacet
  facet normal -0.309008 0.95106 0
    outer loop
      vertex -9.15157 20.5548 0
      vertex -4.67801 22.0083 -20
      vertex -9.15157 20.5548 -20
    endloop
  endfacet
  facet normal -0.913546 0.406736 0
    outer loop
      vertex -21.3988 6.95288 -20
      vertex -19.4856 11.25 0
      vertex -19.4856 11.25 -20
    endloop
  endfacet
  facet normal -0.913546 0.406736 0
    outer loop
      vertex -19.4856 11.25 0
      vertex -21.3988 6.95288 -20
      vertex -21.3988 6.95288 0
    endloop
  endfacet
  facet normal -0.978151 -0.207897 0
    outer loop
      vertex -21.3988 -6.95288 -20
      vertex -22.3767 -2.35189 0
      vertex -22.3767 -2.35189 -20
    endloop
  endfacet
  facet normal -0.978151 -0.207897 0
    outer loop
      vertex -22.3767 -2.35189 0
      vertex -21.3988 -6.95288 -20
      vertex -21.3988 -6.95288 0
    endloop
  endfacet
  facet normal -0.499998 -0.866026 0
    outer loop
      vertex -13.2252 -18.2029 -20
      vertex -9.15157 -20.5548 0
      vertex -13.2252 -18.2029 0
    endloop
  endfacet
  facet normal -0.499998 -0.866026 -0
    outer loop
      vertex -9.15157 -20.5548 0
      vertex -13.2252 -18.2029 -20
      vertex -9.15157 -20.5548 -20
    endloop
  endfacet
  facet normal 0.104533 0.994521 -0
    outer loop
      vertex 4.67801 22.0083 -20
      vertex 0 22.5 0
      vertex 4.67801 22.0083 0
    endloop
  endfacet
  facet normal 0.104533 0.994521 0
    outer loop
      vertex 0 22.5 0
      vertex 4.67801 22.0083 -20
      vertex 0 22.5 -20
    endloop
  endfacet
  facet normal -0.669136 0.74314 0
    outer loop
      vertex -13.2252 18.2029 -20
      vertex -16.7208 15.0554 0
      vertex -13.2252 18.2029 0
    endloop
  endfacet
  facet normal -0.669136 0.74314 0
    outer loop
      vertex -16.7208 15.0554 0
      vertex -13.2252 18.2029 -20
      vertex -16.7208 15.0554 -20
    endloop
  endfacet
  facet normal -1 0 0
    outer loop
      vertex -22.3767 -2.35189 -20
      vertex -22.3767 2.35189 0
      vertex -22.3767 2.35189 -20
    endloop
  endfacet
  facet normal -1 -0 0
    outer loop
      vertex -22.3767 2.35189 0
      vertex -22.3767 -2.35189 -20
      vertex -22.3767 -2.35189 0
    endloop
  endfacet
  facet normal -0.809015 0.587787 0
    outer loop
      vertex -19.4856 11.25 -20
      vertex -16.7208 15.0554 0
      vertex -16.7208 15.0554 -20
    endloop
  endfacet
  facet normal -0.809015 0.587787 0
    outer loop
      vertex -16.7208 15.0554 0
      vertex -19.4856 11.25 -20
      vertex -19.4856 11.25 0
    endloop
  endfacet
  facet normal -0.104533 -0.994521 0
    outer loop
      vertex -4.67801 -22.0083 -20
      vertex 0 -22.5 0
      vertex -4.67801 -22.0083 0
    endloop
  endfacet
  facet normal -0.104533 -0.994521 -0
    outer loop
      vertex 0 -22.5 0
      vertex -4.67801 -22.0083 -20
      vertex 0 -22.5 -20
    endloop
  endfacet
  facet normal -0.669136 -0.74314 0
    outer loop
      vertex -16.7208 -15.0554 -20
      vertex -13.2252 -18.2029 0
      vertex -16.7208 -15.0554 0
    endloop
  endfacet
  facet normal -0.669136 -0.74314 -0
    outer loop
      vertex -13.2252 -18.2029 0
      vertex -16.7208 -15.0554 -20
      vertex -13.2252 -18.2029 -20
    endloop
  endfacet
  facet normal -0.913546 -0.406736 0
    outer loop
      vertex -19.4856 -11.25 -20
      vertex -21.3988 -6.95288 0
      vertex -21.3988 -6.95288 -20
    endloop
  endfacet
  facet normal -0.913546 -0.406736 0
    outer loop
      vertex -21.3988 -6.95288 0
      vertex -19.4856 -11.25 -20
      vertex -19.4856 -11.25 0
    endloop
  endfacet
  facet normal -0.809015 -0.587787 0
    outer loop
      vertex -16.7208 -15.0554 -20
      vertex -19.4856 -11.25 0
      vertex -19.4856 -11.25 -20
    endloop
  endfacet
  facet normal -0.809015 -0.587787 0
    outer loop
      vertex -19.4856 -11.25 0
      vertex -16.7208 -15.0554 -20
      vertex -16.7208 -15.0554 0
    endloop
  endfacet
  facet normal -0.104533 0.994521 0
    outer loop
      vertex 0 22.5 -20
      vertex -4.67801 22.0083 0
      vertex 0 22.5 0
    endloop
  endfacet
  facet normal -0.104533 0.994521 0
    outer loop
      vertex -4.67801 22.0083 0
      vertex 0 22.5 -20
      vertex -4.67801 22.0083 -20
    endloop
  endfacet
  facet normal 0.809015 0.587787 0
    outer loop
      vertex 19.4856 11.25 0
      vertex 16.7208 15.0554 -20
      vertex 16.7208 15.0554 0
    endloop
  endfacet
  facet normal 0.809015 0.587787 0
    outer loop
      vertex 16.7208 15.0554 -20
      vertex 19.4856 11.25 0
      vertex 19.4856 11.25 -20
    endloop
  endfacet
  facet normal -0.978151 0.207897 0
    outer loop
      vertex -22.3767 2.35189 -20
      vertex -21.3988 6.95288 0
      vertex -21.3988 6.95288 -20
    endloop
  endfacet
  facet normal -0.978151 0.207897 0
    outer loop
      vertex -21.3988 6.95288 0
      vertex -22.3767 2.35189 -20
      vertex -22.3767 2.35189 0
    endloop
  endfacet
  facet normal -0.309008 -0.95106 0
    outer loop
      vertex -9.15157 -20.5548 -20
      vertex -4.67801 -22.0083 0
      vertex -9.15157 -20.5548 0
    endloop
  endfacet
  facet normal -0.309008 -0.95106 -0
    outer loop
      vertex -4.67801 -22.0083 0
      vertex -9.15157 -20.5548 -20
      vertex -4.67801 -22.0083 -20
    endloop
  endfacet
  facet normal 0.309008 0.95106 -0
    outer loop
      vertex 9.15157 20.5548 -20
      vertex 4.67801 22.0083 0
      vertex 9.15157 20.5548 0
    endloop
  endfacet
  facet normal 0.309008 0.95106 0
    outer loop
      vertex 4.67801 22.0083 0
      vertex 9.15157 20.5548 -20
      vertex 4.67801 22.0083 -20
    endloop
  endfacet
  facet normal 0.499998 0.866026 -0
    outer loop
      vertex 13.2252 18.2029 -20
      vertex 9.15157 20.5548 0
      vertex 13.2252 18.2029 0
    endloop
  endfacet
  facet normal 0.499998 0.866026 0
    outer loop
      vertex 9.15157 20.5548 0
      vertex 13.2252 18.2029 -20
      vertex 9.15157 20.5548 -20
    endloop
  endfacet
  facet normal 0.978151 -0.207897 0
    outer loop
      vertex 21.3988 -6.95288 0
      vertex 22.3767 -2.35189 -20
      vertex 22.3767 -2.35189 0
    endloop
  endfacet
  facet normal 0.978151 -0.207897 0
    outer loop
      vertex 22.3767 -2.35189 -20
      vertex 21.3988 -6.95288 0
      vertex 21.3988 -6.95288 -20
    endloop
  endfacet
  facet normal 0.104533 -0.994521 0
    outer loop
      vertex 0 -22.5 -20
      vertex 4.67801 -22.0083 0
      vertex 0 -22.5 0
    endloop
  endfacet
  facet normal 0.104533 -0.994521 0
    outer loop
      vertex 4.67801 -22.0083 0
      vertex 0 -22.5 -20
      vertex 4.67801 -22.0083 -20
    endloop
  endfacet
  facet normal 0.978151 0.207897 0
    outer loop
      vertex 22.3767 2.35189 0
      vertex 21.3988 6.95288 -20
      vertex 21.3988 6.95288 0
    endloop
  endfacet
  facet normal 0.978151 0.207897 0
    outer loop
      vertex 21.3988 6.95288 -20
      vertex 22.3767 2.35189 0
      vertex 22.3767 2.35189 -20
    endloop
  endfacet
  facet normal 0.913546 0.406736 0
    outer loop
      vertex 21.3988 6.95288 0
      vertex 19.4856 11.25 -20
      vertex 19.4856 11.25 0
    endloop
  endfacet
  facet normal 0.913546 0.406736 0
    outer loop
      vertex 19.4856 11.25 -20
      vertex 21.3988 6.95288 0
      vertex 21.3988 6.95288 -20
    endloop
  endfacet
  facet normal 0.669136 0.74314 -0
    outer loop
      vertex 16.7208 15.0554 -20
      vertex 13.2252 18.2029 0
      vertex 16.7208 15.0554 0
    endloop
  endfacet
  facet normal 0.669136 0.74314 0
    outer loop
      vertex 13.2252 18.2029 0
      vertex 16.7208 15.0554 -20
      vertex 13.2252 18.2029 -20
    endloop
  endfacet
  facet normal 0.809015 -0.587787 0
    outer loop
      vertex 16.7208 -15.0554 0
      vertex 19.4856 -11.25 -20
      vertex 19.4856 -11.25 0
    endloop
  endfacet
  facet normal 0.809015 -0.587787 0
    outer loop
      vertex 19.4856 -11.25 -20
      vertex 16.7208 -15.0554 0
      vertex 16.7208 -15.0554 -20
    endloop
  endfacet
  facet normal 1 -0 0
    outer loop
      vertex 22.3767 -2.35189 0
      vertex 22.3767 2.35189 -20
      vertex 22.3767 2.35189 0
    endloop
  endfacet
  facet normal 1 0 0
    outer loop
      vertex 22.3767 2.35189 -20
      vertex 22.3767 -2.35189 0
      vertex 22.3767 -2.35189 -20
    endloop
  endfacet
  facet normal 0.913546 -0.406736 0
    outer loop
      vertex 19.4856 -11.25 0
      vertex 21.3988 -6.95288 -20
      vertex 21.3988 -6.95288 0
    endloop
  endfacet
  facet normal 0.913546 -0.406736 0
    outer loop
      vertex 21.3988 -6.95288 -20
      vertex 19.4856 -11.25 0
      vertex 19.4856 -11.25 -20
    endloop
  endfacet
  facet normal 0 0 -1
    outer loop
      vertex 21.3988 -6.95288 -20
      vertex 22.3767 2.35189 -20
      vertex 22.3767 -2.35189 -20
    endloop
  endfacet
  facet normal 0 0 -1
    outer loop
      vertex 21.3988 -6.95288 -20
      vertex 21.3988 6.95288 -20
      vertex 22.3767 2.35189 -20
    endloop
  endfacet
  facet normal 0 0 -1
    outer loop
      vertex 19.4856 -11.25 -20
      vertex 21.3988 6.95288 -20
      vertex 21.3988 -6.95288 -20
    endloop
  endfacet
  facet normal 0 0 -1
    outer loop
      vertex 19.4856 -11.25 -20
      vertex 19.4856 11.25 -20
      vertex 21.3988 6.95288 -20
    endloop
  endfacet
  facet normal 0 0 -1
    outer loop
      vertex 16.7208 -15.0554 -20
      vertex 19.4856 11.25 -20
      vertex 19.4856 -11.25 -20
    endloop
  endfacet
  facet normal 0 0 -1
    outer loop
      vertex 16.7208 -15.0554 -20
      vertex 16.7208 15.0554 -20
      vertex 19.4856 11.25 -20
    endloop
  endfacet
  facet normal 0 0 -1
    outer loop
      vertex 13.2252 -18.2029 -20
      vertex 16.7208 15.0554 -20
      vertex 16.7208 -15.0554 -20
    endloop
  endfacet
  facet normal 0 0 -1
    outer loop
      vertex 13.2252 -18.2029 -20
      vertex 13.2252 18.2029 -20
      vertex 16.7208 15.0554 -20
    endloop
  endfacet
  facet normal 0 0 -1
    outer loop
      vertex 9.15157 -20.5548 -20
      vertex 13.2252 18.2029 -20
      vertex 13.2252 -18.2029 -20
    endloop
  endfacet
  facet normal 0 0 -1
    outer loop
      vertex 9.15157 -20.5548 -20
      vertex 9.15157 20.5548 -20
      vertex 13.2252 18.2029 -20
    endloop
  endfacet
  facet normal 0 0 -1
    outer loop
      vertex 4.67801 -22.0083 -20
      vertex 9.15157 20.5548 -20
      vertex 9.15157 -20.5548 -20
    endloop
  endfacet
  facet normal 0 0 -1
    outer loop
      vertex 4.67801 -22.0083 -20
      vertex 4.67801 22.0083 -20
      vertex 9.15157 20.5548 -20
    endloop
  endfacet
  facet normal 0 0 -1
    outer loop
      vertex 0 -22.5 -20
      vertex 4.67801 22.0083 -20
      vertex 4.67801 -22.0083 -20
    endloop
  endfacet
  facet normal 0 0 -1
    outer loop
      vertex 0 -22.5 -20
      vertex 0 22.5 -20
      vertex 4.67801 22.0083 -20
    endloop
  endfacet
  facet normal 0 0 -1
    outer loop
      vertex -4.67801 -22.0083 -20
      vertex 0 22.5 -20
      vertex 0 -22.5 -20
    endloop
  endfacet
  facet normal 0 0 -1
    outer loop
      vertex -4.67801 -22.0083 -20
      vertex -4.67801 22.0083 -20
      vertex 0 22.5 -20
    endloop
  endfacet
  facet normal 0 0 -1
    outer loop
      vertex -9.15157 -20.5548 -20
      vertex -4.67801 22.0083 -20
      vertex -4.67801 -22.0083 -20
    endloop
  endfacet
  facet normal 0 0 -1
    outer loop
      vertex -9.15157 -20.5548 -20
      vertex -9.15157 20.5548 -20
      vertex -4.67801 22.0083 -20
    endloop
  endfacet
  facet normal 0 0 -1
    outer loop
      vertex -13.2252 -18.2029 -20
      vertex -9.15157 20.5548 -20
      vertex -9.15157 -20.5548 -20
    endloop
  endfacet
  facet normal 0 0 -1
    outer loop
      vertex -13.2252 -18.2029 -20
      vertex -13.2252 18.2029 -20
      vertex -9.15157 20.5548 -20
    endloop
  endfacet
  facet normal 0 0 -1
    outer loop
      vertex -16.7208 -15.0554 -20
      vertex -13.2252 18.2029 -20
      vertex -13.2252 -18.2029 -20
    endloop
  endfacet
  facet normal 0 0 -1
    outer loop
      vertex -16.7208 -15.0554 -20
      vertex -16.7208 15.0554 -20
      vertex -13.2252 18.2029 -20
    endloop
  endfacet
  facet normal 0 0 -1
    outer loop
      vertex -19.4856 -11.25 -20
      vertex -16.7208 15.0554 -20
      vertex -16.7208 -15.0554 -20
    endloop
  endfacet
  facet normal 0 0 -1
    outer loop
      vertex -19.4856 -11.25 -20
      vertex -19.4856 11.25 -20
      vertex -16.7208 15.0554 -20
    endloop
  endfacet
  facet normal 0 0 -1
    outer loop
      vertex -21.3988 -6.95288 -20
      vertex -19.4856 11.25 -20
      vertex -19.4856 -11.25 -20
    endloop
  endfacet
  facet normal 0 0 -1
    outer loop
      vertex -21.3988 -6.95288 -20
      vertex -21.3988 6.95288 -20
      vertex -19.4856 11.25 -20
    endloop
  endfacet
  facet normal 0 0 -1
    outer loop
      vertex -22.3767 -2.35189 -20
      vertex -21.3988 6.95288 -20
      vertex -21.3988 -6.95288 -20
    endloop
  endfacet
  facet normal 0 0 -1
    outer loop
      vertex -21.3988 6.95288 -20
      vertex -22.3767 -2.35189 -20
      vertex -22.3767 2.35189 -20
    endloop
  endfacet
  facet normal 0.309008 -0.95106 0
    outer loop
      vertex 4.67801 -22.0083 -20
      vertex 9.15157 -20.5548 0
      vertex 4.67801 -22.0083 0
    endloop
  endfacet
  facet normal 0.309008 -0.95106 0
    outer loop
      vertex 9.15157 -20.5548 0
      vertex 4.67801 -22.0083 -20
      vertex 9.15157 -20.5548 -20
    endloop
  endfacet
  facet normal 0.669136 -0.74314 0
    outer loop
      vertex 13.2252 -18.2029 -20
      vertex 16.7208 -15.0554 0
      vertex 13.2252 -18.2029 0
    endloop
  endfacet
  facet normal 0.669136 -0.74314 0
    outer loop
      vertex 16.7208 -15.0554 0
      vertex 13.2252 -18.2029 -20
      vertex 16.7208 -15.0554 -20
    endloop
  endfacet
  facet normal 0.499998 -0.866026 0
    outer loop
      vertex 9.15157 -20.5548 -20
      vertex 13.2252 -18.2029 0
      vertex 9.15157 -20.5548 0
    endloop
  endfacet
  facet normal 0.499998 -0.866026 0
    outer loop
      vertex 13.2252 -18.2029 0
      vertex 9.15157 -20.5548 -20
      vertex 13.2252 -18.2029 -20
    endloop
  endfacet
  facet normal -0.0741143 -0.705165 -0.70516
    outer loop
      vertex -10.1016 -47.5241 0
      vertex 0 -48.5858 0
      vertex 0 -50 1.41421
    endloop
  endfacet
  facet normal -0.0741143 -0.705165 -0.70516
    outer loop
      vertex -10.3956 -48.9074 1.41421
      vertex -10.1016 -47.5241 0
      vertex 0 -50 1.41421
    endloop
  endfacet
  facet normal -0.219113 -0.674345 -0.705158
    outer loop
      vertex -19.7616 -44.3853 0
      vertex -10.1016 -47.5241 0
      vertex -10.3956 -48.9074 1.41421
    endloop
  endfacet
  facet normal -0.219104 -0.674331 -0.705174
    outer loop
      vertex -20.3368 -45.6773 1.41421
      vertex -19.7616 -44.3853 0
      vertex -10.3956 -48.9074 1.41421
    endloop
  endfacet
  facet normal -0.354518 -0.614043 -0.705173
    outer loop
      vertex -28.558 -39.3067 0
      vertex -19.7616 -44.3853 0
      vertex -20.3368 -45.6773 1.41421
    endloop
  endfacet
  facet normal -0.354508 -0.614034 -0.705185
    outer loop
      vertex -29.3893 -40.4509 1.41421
      vertex -28.558 -39.3067 0
      vertex -20.3368 -45.6773 1.41421
    endloop
  endfacet
  facet normal -0.862091 0 -0.506754
    outer loop
      vertex -29.3893 -40.4509 1.41421
      vertex -29.3893 -40.4508 1.41421
      vertex -28.558 -39.3067 0
    endloop
  endfacet
  facet normal -0.474441 -0.526921 -0.705166
    outer loop
      vertex -28.558 -39.3067 0
      vertex -29.3893 -40.4508 1.41421
      vertex -36.1063 -32.5102 0
    endloop
  endfacet
  facet normal -0.474452 -0.526929 -0.705153
    outer loop
      vertex -37.1572 -33.4565 1.41421
      vertex -36.1063 -32.5102 0
      vertex -29.3893 -40.4508 1.41421
    endloop
  endfacet
  facet normal -0.57364 -0.416773 -0.70515
    outer loop
      vertex -36.1063 -32.5102 0
      vertex -37.1572 -33.4565 1.41421
      vertex -42.0765 -24.2929 0
    endloop
  endfacet
  facet normal -0.573619 -0.416765 -0.705173
    outer loop
      vertex -43.3013 -25 1.41421
      vertex -42.0765 -24.2929 0
      vertex -37.1572 -33.4565 1.41421
    endloop
  endfacet
  facet normal -0.647735 -0.288389 -0.705175
    outer loop
      vertex -46.2078 -15.0138 0
      vertex -42.0765 -24.2929 0
      vertex -43.3013 -25 1.41421
    endloop
  endfacet
  facet normal -0.647748 -0.288391 -0.705162
    outer loop
      vertex -43.3013 -25 1.41421
      vertex -47.5528 -15.4508 1.41421
      vertex -46.2078 -15.0138 0
    endloop
  endfacet
  facet normal 0 0 -1
    outer loop
      vertex -48.7687 -9.73071 1.41421
      vertex -49.7261 -5.22643 1.41421
      vertex -49.7261 -5.22642 1.41421
    endloop
  endfacet
  facet normal -0.693551 -0.147419 -0.705163
    outer loop
      vertex -46.2078 -15.0138 0
      vertex -47.5528 -15.4508 1.41421
      vertex -48.3196 -5.0786 0
    endloop
  endfacet
  facet normal -0.693527 -0.147421 -0.705186
    outer loop
      vertex -48.7687 -9.73071 1.41421
      vertex -48.3196 -5.0786 0
      vertex -47.5528 -15.4508 1.41421
    endloop
  endfacet
  facet normal -0.693544 -0.147415 -0.705171
    outer loop
      vertex -48.3196 -5.0786 0
      vertex -48.7687 -9.73071 1.41421
      vertex -49.7261 -5.22642 1.41421
    endloop
  endfacet
  facet normal -0.709037 0 -0.705171
    outer loop
      vertex -48.3196 -5.0786 0
      vertex -49.7261 5.22642 1.41421
      vertex -48.3196 5.0786 0
    endloop
  endfacet
  facet normal -0.709037 -0 -0.705171
    outer loop
      vertex -49.7261 5.22642 1.41421
      vertex -48.3196 -5.0786 0
      vertex -49.7261 -5.22642 1.41421
    endloop
  endfacet
  facet normal -0.693543 0.147418 -0.705171
    outer loop
      vertex -49.7261 5.22642 1.41421
      vertex -46.2078 15.0138 0
      vertex -48.3196 5.0786 0
    endloop
  endfacet
  facet normal -0.693549 0.147425 -0.705163
    outer loop
      vertex -46.2078 15.0138 0
      vertex -48.7687 9.73071 1.41421
      vertex -47.5528 15.4508 1.41421
    endloop
  endfacet
  facet normal -0.693533 0.147412 -0.705182
    outer loop
      vertex -48.7687 9.73071 1.41421
      vertex -46.2078 15.0138 0
      vertex -49.7261 5.22642 1.41421
    endloop
  endfacet
  facet normal -0.647737 0.28839 -0.705172
    outer loop
      vertex -46.2078 15.0138 0
      vertex -47.5528 15.4509 1.41421
      vertex -42.0765 24.2929 0
    endloop
  endfacet
  facet normal -0.724615 -0 -0.689153
    outer loop
      vertex -47.5528 15.4509 1.41421
      vertex -46.2078 15.0138 0
      vertex -47.5528 15.4508 1.41421
    endloop
  endfacet
  facet normal -0.647735 0.288388 -0.705175
    outer loop
      vertex -43.3013 25 1.41421
      vertex -42.0765 24.2929 0
      vertex -47.5528 15.4509 1.41421
    endloop
  endfacet
  facet normal -0.573622 0.41676 -0.705173
    outer loop
      vertex -43.3013 25 1.41421
      vertex -36.1063 32.5102 0
      vertex -42.0765 24.2929 0
    endloop
  endfacet
  facet normal -0.573636 0.416778 -0.705151
    outer loop
      vertex -36.1063 32.5102 0
      vertex -43.3013 25 1.41421
      vertex -37.1572 33.4565 1.41421
    endloop
  endfacet
  facet normal -0.47445 0.526931 -0.705153
    outer loop
      vertex -36.1063 32.5102 0
      vertex -37.1572 33.4565 1.41421
      vertex -28.558 39.3067 0
    endloop
  endfacet
  facet normal -0.474435 0.526902 -0.705185
    outer loop
      vertex -29.3893 40.4509 1.41421
      vertex -28.558 39.3067 0
      vertex -37.1572 33.4565 1.41421
    endloop
  endfacet
  facet normal -0.354517 0.614043 -0.705173
    outer loop
      vertex -28.558 39.3067 0
      vertex -29.3892 40.4509 1.41421
      vertex -19.7616 44.3853 0
    endloop
  endfacet
  facet normal 0 0.777416 -0.628987
    outer loop
      vertex -29.3892 40.4509 1.41421
      vertex -28.558 39.3067 0
      vertex -29.3893 40.4509 1.41421
    endloop
  endfacet
  facet normal -0.354518 0.614043 -0.705173
    outer loop
      vertex -20.3368 45.6773 1.41421
      vertex -19.7616 44.3853 0
      vertex -29.3892 40.4509 1.41421
    endloop
  endfacet
  facet normal -0.219108 0.67433 -0.705175
    outer loop
      vertex -20.3368 45.6773 1.41421
      vertex -10.1016 47.5241 0
      vertex -19.7616 44.3853 0
    endloop
  endfacet
  facet normal -0.219109 0.674347 -0.705158
    outer loop
      vertex -10.3956 48.9074 1.41421
      vertex -10.1016 47.5241 0
      vertex -20.3368 45.6773 1.41421
    endloop
  endfacet
  facet normal -0.0741143 0.705165 -0.70516
    outer loop
      vertex -10.3956 48.9074 1.41421
      vertex 0 48.5858 0
      vertex -10.1016 47.5241 0
    endloop
  endfacet
  facet normal -0.0741143 0.705165 -0.70516
    outer loop
      vertex 0 50 1.41421
      vertex 0 48.5858 0
      vertex -10.3956 48.9074 1.41421
    endloop
  endfacet
  facet normal 0.0741143 0.705165 -0.70516
    outer loop
      vertex 0 50 1.41421
      vertex 10.1016 47.5241 0
      vertex 0 48.5858 0
    endloop
  endfacet
  facet normal 0.0741143 0.705165 -0.70516
    outer loop
      vertex 10.3956 48.9074 1.41421
      vertex 10.1016 47.5241 0
      vertex 0 50 1.41421
    endloop
  endfacet
  facet normal 0.219113 0.674345 -0.705158
    outer loop
      vertex 10.3956 48.9074 1.41421
      vertex 19.7616 44.3853 0
      vertex 10.1016 47.5241 0
    endloop
  endfacet
  facet normal 0.219104 0.674331 -0.705174
    outer loop
      vertex 20.3368 45.6773 1.41421
      vertex 19.7616 44.3853 0
      vertex 10.3956 48.9074 1.41421
    endloop
  endfacet
  facet normal 0.354518 0.614043 -0.705173
    outer loop
      vertex 20.3368 45.6773 1.41421
      vertex 28.558 39.3067 0
      vertex 19.7616 44.3853 0
    endloop
  endfacet
  facet normal 0.354508 0.614034 -0.705185
    outer loop
      vertex 29.3893 40.4509 1.41421
      vertex 28.558 39.3067 0
      vertex 20.3368 45.6773 1.41421
    endloop
  endfacet
  facet normal 0.474441 0.526921 -0.705166
    outer loop
      vertex 28.558 39.3067 0
      vertex 29.3893 40.4508 1.41421
      vertex 36.1063 32.5102 0
    endloop
  endfacet
  facet normal 0.862091 0 -0.506754
    outer loop
      vertex 29.3893 40.4508 1.41421
      vertex 28.558 39.3067 0
      vertex 29.3893 40.4509 1.41421
    endloop
  endfacet
  facet normal 0.474452 0.526929 -0.705153
    outer loop
      vertex 37.1572 33.4565 1.41421
      vertex 36.1063 32.5102 0
      vertex 29.3893 40.4508 1.41421
    endloop
  endfacet
  facet normal 0.57364 0.416773 -0.70515
    outer loop
      vertex 36.1063 32.5102 0
      vertex 37.1572 33.4565 1.41421
      vertex 42.0765 24.2929 0
    endloop
  endfacet
  facet normal 0.573619 0.416765 -0.705173
    outer loop
      vertex 43.3013 25 1.41421
      vertex 42.0765 24.2929 0
      vertex 37.1572 33.4565 1.41421
    endloop
  endfacet
  facet normal 0.647735 0.288389 -0.705175
    outer loop
      vertex 43.3013 25 1.41421
      vertex 46.2078 15.0138 0
      vertex 42.0765 24.2929 0
    endloop
  endfacet
  facet normal 0.647748 0.288391 -0.705162
    outer loop
      vertex 47.5528 15.4508 1.41421
      vertex 46.2078 15.0138 0
      vertex 43.3013 25 1.41421
    endloop
  endfacet
  facet normal 0 0 -1
    outer loop
      vertex 48.7687 9.73071 1.41421
      vertex 49.7261 5.22643 1.41421
      vertex 49.7261 5.22642 1.41421
    endloop
  endfacet
  facet normal 0.693551 0.147419 -0.705163
    outer loop
      vertex 46.2078 15.0138 0
      vertex 47.5528 15.4508 1.41421
      vertex 48.3196 5.0786 0
    endloop
  endfacet
  facet normal 0.693544 0.147415 -0.705171
    outer loop
      vertex 48.3196 5.0786 0
      vertex 48.7687 9.73071 1.41421
      vertex 49.7261 5.22642 1.41421
    endloop
  endfacet
  facet normal 0.693527 0.147421 -0.705186
    outer loop
      vertex 48.7687 9.73071 1.41421
      vertex 48.3196 5.0786 0
      vertex 47.5528 15.4508 1.41421
    endloop
  endfacet
  facet normal 0.709037 0 -0.705171
    outer loop
      vertex 49.7261 5.22642 1.41421
      vertex 48.3196 -5.0786 0
      vertex 48.3196 5.0786 0
    endloop
  endfacet
  facet normal 0.709037 0 -0.705171
    outer loop
      vertex 48.3196 -5.0786 0
      vertex 49.7261 5.22642 1.41421
      vertex 49.7261 -5.22642 1.41421
    endloop
  endfacet
  facet normal 0.693543 -0.147418 -0.705171
    outer loop
      vertex 46.2078 -15.0138 0
      vertex 48.3196 -5.0786 0
      vertex 49.7261 -5.22642 1.41421
    endloop
  endfacet
  facet normal 0.693533 -0.147412 -0.705182
    outer loop
      vertex 48.7687 -9.73071 1.41421
      vertex 46.2078 -15.0138 0
      vertex 49.7261 -5.22642 1.41421
    endloop
  endfacet
  facet normal 0.693549 -0.147425 -0.705163
    outer loop
      vertex 46.2078 -15.0138 0
      vertex 48.7687 -9.73071 1.41421
      vertex 47.5528 -15.4508 1.41421
    endloop
  endfacet
  facet normal 0.724615 0 -0.689153
    outer loop
      vertex 47.5528 -15.4509 1.41421
      vertex 46.2078 -15.0138 0
      vertex 47.5528 -15.4508 1.41421
    endloop
  endfacet
  facet normal 0.647737 -0.28839 -0.705172
    outer loop
      vertex 46.2078 -15.0138 0
      vertex 47.5528 -15.4509 1.41421
      vertex 42.0765 -24.2929 0
    endloop
  endfacet
  facet normal 0.647735 -0.288388 -0.705175
    outer loop
      vertex 43.3013 -25 1.41421
      vertex 42.0765 -24.2929 0
      vertex 47.5528 -15.4509 1.41421
    endloop
  endfacet
  facet normal 0.573622 -0.41676 -0.705173
    outer loop
      vertex 36.1063 -32.5102 0
      vertex 42.0765 -24.2929 0
      vertex 43.3013 -25 1.41421
    endloop
  endfacet
  facet normal 0.573636 -0.416778 -0.705151
    outer loop
      vertex 43.3013 -25 1.41421
      vertex 37.1572 -33.4565 1.41421
      vertex 36.1063 -32.5102 0
    endloop
  endfacet
  facet normal 0.47445 -0.526931 -0.705153
    outer loop
      vertex 36.1063 -32.5102 0
      vertex 37.1572 -33.4565 1.41421
      vertex 28.558 -39.3067 0
    endloop
  endfacet
  facet normal 0.474435 -0.526902 -0.705185
    outer loop
      vertex 29.3893 -40.4509 1.41421
      vertex 28.558 -39.3067 0
      vertex 37.1572 -33.4565 1.41421
    endloop
  endfacet
  facet normal 0 -0.777416 -0.628987
    outer loop
      vertex 29.3892 -40.4509 1.41421
      vertex 28.558 -39.3067 0
      vertex 29.3893 -40.4509 1.41421
    endloop
  endfacet
  facet normal 0.354517 -0.614043 -0.705173
    outer loop
      vertex 28.558 -39.3067 0
      vertex 29.3892 -40.4509 1.41421
      vertex 19.7616 -44.3853 0
    endloop
  endfacet
  facet normal 0.354518 -0.614043 -0.705173
    outer loop
      vertex 20.3368 -45.6773 1.41421
      vertex 19.7616 -44.3853 0
      vertex 29.3892 -40.4509 1.41421
    endloop
  endfacet
  facet normal 0.219108 -0.67433 -0.705175
    outer loop
      vertex 10.1016 -47.5241 0
      vertex 19.7616 -44.3853 0
      vertex 20.3368 -45.6773 1.41421
    endloop
  endfacet
  facet normal 0.219109 -0.674347 -0.705158
    outer loop
      vertex 10.3956 -48.9074 1.41421
      vertex 10.1016 -47.5241 0
      vertex 20.3368 -45.6773 1.41421
    endloop
  endfacet
  facet normal 0.0741143 -0.705165 -0.70516
    outer loop
      vertex 0 -48.5858 0
      vertex 10.1016 -47.5241 0
      vertex 10.3956 -48.9074 1.41421
    endloop
  endfacet
  facet normal 0.0741143 -0.705165 -0.70516
    outer loop
      vertex 0 -50 1.41421
      vertex 0 -48.5858 0
      vertex 10.3956 -48.9074 1.41421
    endloop
  endfacet
  facet normal -0.104527 0.994522 0
    outer loop
      vertex 0 25 20
      vertex -5.19779 24.4537 40
      vertex 0 25 40
    endloop
  endfacet
  facet normal -0.104527 0.994522 0
    outer loop
      vertex -5.19779 24.4537 40
      vertex 0 25 20
      vertex -5.19779 24.4537 20
    endloop
  endfacet
  facet normal -0.104527 -0.994522 0
    outer loop
      vertex -5.19779 -24.4537 20
      vertex 0 -25 40
      vertex -5.19779 -24.4537 40
    endloop
  endfacet
  facet normal -0.104527 -0.994522 -0
    outer loop
      vertex 0 -25 40
      vertex -5.19779 -24.4537 20
      vertex 0 -25 20
    endloop
  endfacet
  facet normal -0.669123 -0.743151 0
    outer loop
      vertex -18.5786 -16.7283 20
      vertex -14.6946 -20.2254 40
      vertex -18.5786 -16.7283 40
    endloop
  endfacet
  facet normal -0.669123 -0.743151 -0
    outer loop
      vertex -14.6946 -20.2254 40
      vertex -18.5786 -16.7283 20
      vertex -14.6946 -20.2254 20
    endloop
  endfacet
  facet normal -0.5 -0.866026 0
    outer loop
      vertex -14.6946 -20.2254 20
      vertex -10.1684 -22.8386 40
      vertex -14.6946 -20.2254 40
    endloop
  endfacet
  facet normal -0.5 -0.866026 -0
    outer loop
      vertex -10.1684 -22.8386 40
      vertex -14.6946 -20.2254 20
      vertex -10.1684 -22.8386 20
    endloop
  endfacet
  facet normal -0.913544 -0.40674 0
    outer loop
      vertex -21.6506 -12.5 20
      vertex -23.7764 -7.72542 40
      vertex -23.7764 -7.72542 20
    endloop
  endfacet
  facet normal -0.913544 -0.40674 0
    outer loop
      vertex -23.7764 -7.72542 40
      vertex -21.6506 -12.5 20
      vertex -21.6506 -12.5 40
    endloop
  endfacet
  facet normal -0.309026 0.951054 0
    outer loop
      vertex -5.19779 24.4537 20
      vertex -10.1684 22.8386 40
      vertex -5.19779 24.4537 40
    endloop
  endfacet
  facet normal -0.309026 0.951054 0
    outer loop
      vertex -10.1684 22.8386 40
      vertex -5.19779 24.4537 20
      vertex -10.1684 22.8386 20
    endloop
  endfacet
  facet normal -0.669123 0.743151 0
    outer loop
      vertex -14.6946 20.2254 20
      vertex -18.5786 16.7283 40
      vertex -14.6946 20.2254 40
    endloop
  endfacet
  facet normal -0.669123 0.743151 0
    outer loop
      vertex -18.5786 16.7283 40
      vertex -14.6946 20.2254 20
      vertex -18.5786 16.7283 20
    endloop
  endfacet
  facet normal -1 0 0
    outer loop
      vertex -24.863 -2.61321 20
      vertex -24.863 2.61321 40
      vertex -24.863 2.61321 20
    endloop
  endfacet
  facet normal -1 -0 0
    outer loop
      vertex -24.863 2.61321 40
      vertex -24.863 -2.61321 20
      vertex -24.863 -2.61321 40
    endloop
  endfacet
  facet normal -0.913544 0.40674 0
    outer loop
      vertex -23.7764 7.72542 20
      vertex -21.6506 12.5 40
      vertex -21.6506 12.5 20
    endloop
  endfacet
  facet normal -0.913544 0.40674 0
    outer loop
      vertex -21.6506 12.5 40
      vertex -23.7764 7.72542 20
      vertex -23.7764 7.72542 40
    endloop
  endfacet
  facet normal -0.309026 -0.951054 0
    outer loop
      vertex -10.1684 -22.8386 20
      vertex -5.19779 -24.4537 40
      vertex -10.1684 -22.8386 40
    endloop
  endfacet
  facet normal -0.309026 -0.951054 -0
    outer loop
      vertex -5.19779 -24.4537 40
      vertex -10.1684 -22.8386 20
      vertex -5.19779 -24.4537 20
    endloop
  endfacet
  facet normal -0.809021 -0.58778 0
    outer loop
      vertex -18.5786 -16.7283 20
      vertex -21.6506 -12.5 40
      vertex -21.6506 -12.5 20
    endloop
  endfacet
  facet normal -0.809021 -0.58778 0
    outer loop
      vertex -21.6506 -12.5 40
      vertex -18.5786 -16.7283 20
      vertex -18.5786 -16.7283 40
    endloop
  endfacet
  facet normal -0.978149 -0.207906 0
    outer loop
      vertex -23.7764 -7.72542 20
      vertex -24.863 -2.61321 40
      vertex -24.863 -2.61321 20
    endloop
  endfacet
  facet normal -0.978149 -0.207906 0
    outer loop
      vertex -24.863 -2.61321 40
      vertex -23.7764 -7.72542 20
      vertex -23.7764 -7.72542 40
    endloop
  endfacet
  facet normal 0.104527 0.994522 -0
    outer loop
      vertex 5.19779 24.4537 20
      vertex 0 25 40
      vertex 5.19779 24.4537 40
    endloop
  endfacet
  facet normal 0.104527 0.994522 0
    outer loop
      vertex 0 25 40
      vertex 5.19779 24.4537 20
      vertex 0 25 20
    endloop
  endfacet
  facet normal 0 0 1
    outer loop
      vertex 23.7764 7.72542 40
      vertex 24.863 -2.61321 40
      vertex 24.863 2.61321 40
    endloop
  endfacet
  facet normal 0 0 1
    outer loop
      vertex 23.7764 7.72542 40
      vertex 23.7764 -7.72542 40
      vertex 24.863 -2.61321 40
    endloop
  endfacet
  facet normal 0 0 1
    outer loop
      vertex 21.6506 12.5 40
      vertex 23.7764 -7.72542 40
      vertex 23.7764 7.72542 40
    endloop
  endfacet
  facet normal 0 0 1
    outer loop
      vertex 21.6506 12.5 40
      vertex 21.6506 -12.5 40
      vertex 23.7764 -7.72542 40
    endloop
  endfacet
  facet normal 0 0 1
    outer loop
      vertex 18.5786 16.7283 40
      vertex 21.6506 -12.5 40
      vertex 21.6506 12.5 40
    endloop
  endfacet
  facet normal 0 0 1
    outer loop
      vertex 18.5786 16.7283 40
      vertex 18.5786 -16.7283 40
      vertex 21.6506 -12.5 40
    endloop
  endfacet
  facet normal 0 0 1
    outer loop
      vertex 14.6946 20.2254 40
      vertex 18.5786 -16.7283 40
      vertex 18.5786 16.7283 40
    endloop
  endfacet
  facet normal 0 0 1
    outer loop
      vertex 14.6946 20.2254 40
      vertex 14.6946 -20.2254 40
      vertex 18.5786 -16.7283 40
    endloop
  endfacet
  facet normal 0 0 1
    outer loop
      vertex 10.1684 22.8386 40
      vertex 14.6946 -20.2254 40
      vertex 14.6946 20.2254 40
    endloop
  endfacet
  facet normal 0 0 1
    outer loop
      vertex 10.1684 22.8386 40
      vertex 10.1684 -22.8386 40
      vertex 14.6946 -20.2254 40
    endloop
  endfacet
  facet normal 0 0 1
    outer loop
      vertex 5.19779 24.4537 40
      vertex 10.1684 -22.8386 40
      vertex 10.1684 22.8386 40
    endloop
  endfacet
  facet normal 0 0 1
    outer loop
      vertex 5.19779 24.4537 40
      vertex 5.19779 -24.4537 40
      vertex 10.1684 -22.8386 40
    endloop
  endfacet
  facet normal 0 0 1
    outer loop
      vertex 0 25 40
      vertex 5.19779 -24.4537 40
      vertex 5.19779 24.4537 40
    endloop
  endfacet
  facet normal 0 0 1
    outer loop
      vertex 0 25 40
      vertex 0 -25 40
      vertex 5.19779 -24.4537 40
    endloop
  endfacet
  facet normal -0 0 1
    outer loop
      vertex -5.19779 24.4537 40
      vertex 0 -25 40
      vertex 0 25 40
    endloop
  endfacet
  facet normal 0 0 1
    outer loop
      vertex -5.19779 24.4537 40
      vertex -5.19779 -24.4537 40
      vertex 0 -25 40
    endloop
  endfacet
  facet normal -0 0 1
    outer loop
      vertex -10.1684 22.8386 40
      vertex -5.19779 -24.4537 40
      vertex -5.19779 24.4537 40
    endloop
  endfacet
  facet normal 0 0 1
    outer loop
      vertex -10.1684 22.8386 40
      vertex -10.1684 -22.8386 40
      vertex -5.19779 -24.4537 40
    endloop
  endfacet
  facet normal -0 0 1
    outer loop
      vertex -14.6946 20.2254 40
      vertex -10.1684 -22.8386 40
      vertex -10.1684 22.8386 40
    endloop
  endfacet
  facet normal 0 0 1
    outer loop
      vertex -14.6946 20.2254 40
      vertex -14.6946 -20.2254 40
      vertex -10.1684 -22.8386 40
    endloop
  endfacet
  facet normal -0 0 1
    outer loop
      vertex -18.5786 16.7283 40
      vertex -14.6946 -20.2254 40
      vertex -14.6946 20.2254 40
    endloop
  endfacet
  facet normal 0 0 1
    outer loop
      vertex -18.5786 16.7283 40
      vertex -18.5786 -16.7283 40
      vertex -14.6946 -20.2254 40
    endloop
  endfacet
  facet normal -0 0 1
    outer loop
      vertex -21.6506 12.5 40
      vertex -18.5786 -16.7283 40
      vertex -18.5786 16.7283 40
    endloop
  endfacet
  facet normal 0 0 1
    outer loop
      vertex -21.6506 12.5 40
      vertex -21.6506 -12.5 40
      vertex -18.5786 -16.7283 40
    endloop
  endfacet
  facet normal -0 0 1
    outer loop
      vertex -23.7764 7.72542 40
      vertex -21.6506 -12.5 40
      vertex -21.6506 12.5 40
    endloop
  endfacet
  facet normal 0 0 1
    outer loop
      vertex -23.7764 7.72542 40
      vertex -23.7764 -7.72542 40
      vertex -21.6506 -12.5 40
    endloop
  endfacet
  facet normal -0 0 1
    outer loop
      vertex -24.863 2.61321 40
      vertex -23.7764 -7.72542 40
      vertex -23.7764 7.72542 40
    endloop
  endfacet
  facet normal 0 0 1
    outer loop
      vertex -23.7764 -7.72542 40
      vertex -24.863 2.61321 40
      vertex -24.863 -2.61321 40
    endloop
  endfacet
  facet normal -0.5 0.866026 0
    outer loop
      vertex -10.1684 22.8386 20
      vertex -14.6946 20.2254 40
      vertex -10.1684 22.8386 40
    endloop
  endfacet
  facet normal -0.5 0.866026 0
    outer loop
      vertex -14.6946 20.2254 40
      vertex -10.1684 22.8386 20
      vertex -14.6946 20.2254 20
    endloop
  endfacet
  facet normal -0.809021 0.58778 0
    outer loop
      vertex -21.6506 12.5 20
      vertex -18.5786 16.7283 40
      vertex -18.5786 16.7283 20
    endloop
  endfacet
  facet normal -0.809021 0.58778 0
    outer loop
      vertex -18.5786 16.7283 40
      vertex -21.6506 12.5 20
      vertex -21.6506 12.5 40
    endloop
  endfacet
  facet normal -0.978149 0.207906 0
    outer loop
      vertex -24.863 2.61321 20
      vertex -23.7764 7.72542 40
      vertex -23.7764 7.72542 20
    endloop
  endfacet
  facet normal -0.978149 0.207906 0
    outer loop
      vertex -23.7764 7.72542 40
      vertex -24.863 2.61321 20
      vertex -24.863 2.61321 40
    endloop
  endfacet
  facet normal 0.669123 0.743151 -0
    outer loop
      vertex 18.5786 16.7283 20
      vertex 14.6946 20.2254 40
      vertex 18.5786 16.7283 40
    endloop
  endfacet
  facet normal 0.669123 0.743151 0
    outer loop
      vertex 14.6946 20.2254 40
      vertex 18.5786 16.7283 20
      vertex 14.6946 20.2254 20
    endloop
  endfacet
  facet normal 0.309026 0.951054 -0
    outer loop
      vertex 10.1684 22.8386 20
      vertex 5.19779 24.4537 40
      vertex 10.1684 22.8386 40
    endloop
  endfacet
  facet normal 0.309026 0.951054 0
    outer loop
      vertex 5.19779 24.4537 40
      vertex 10.1684 22.8386 20
      vertex 5.19779 24.4537 20
    endloop
  endfacet
  facet normal 0.5 0.866026 -0
    outer loop
      vertex 14.6946 20.2254 20
      vertex 10.1684 22.8386 40
      vertex 14.6946 20.2254 40
    endloop
  endfacet
  facet normal 0.5 0.866026 0
    outer loop
      vertex 10.1684 22.8386 40
      vertex 14.6946 20.2254 20
      vertex 10.1684 22.8386 20
    endloop
  endfacet
  facet normal 0.309026 -0.951054 0
    outer loop
      vertex 5.19779 -24.4537 20
      vertex 10.1684 -22.8386 40
      vertex 5.19779 -24.4537 40
    endloop
  endfacet
  facet normal 0.309026 -0.951054 0
    outer loop
      vertex 10.1684 -22.8386 40
      vertex 5.19779 -24.4537 20
      vertex 10.1684 -22.8386 20
    endloop
  endfacet
  facet normal 0.978149 0.207906 0
    outer loop
      vertex 24.863 2.61321 40
      vertex 23.7764 7.72542 20
      vertex 23.7764 7.72542 40
    endloop
  endfacet
  facet normal 0.978149 0.207906 0
    outer loop
      vertex 23.7764 7.72542 20
      vertex 24.863 2.61321 40
      vertex 24.863 2.61321 20
    endloop
  endfacet
  facet normal 0.809021 0.58778 0
    outer loop
      vertex 21.6506 12.5 40
      vertex 18.5786 16.7283 20
      vertex 18.5786 16.7283 40
    endloop
  endfacet
  facet normal 0.809021 0.58778 0
    outer loop
      vertex 18.5786 16.7283 20
      vertex 21.6506 12.5 40
      vertex 21.6506 12.5 20
    endloop
  endfacet
  facet normal 1 -0 0
    outer loop
      vertex 24.863 -2.61321 40
      vertex 24.863 2.61321 20
      vertex 24.863 2.61321 40
    endloop
  endfacet
  facet normal 1 0 0
    outer loop
      vertex 24.863 2.61321 20
      vertex 24.863 -2.61321 40
      vertex 24.863 -2.61321 20
    endloop
  endfacet
  facet normal 0.978149 -0.207906 0
    outer loop
      vertex 23.7764 -7.72542 40
      vertex 24.863 -2.61321 20
      vertex 24.863 -2.61321 40
    endloop
  endfacet
  facet normal 0.978149 -0.207906 0
    outer loop
      vertex 24.863 -2.61321 20
      vertex 23.7764 -7.72542 40
      vertex 23.7764 -7.72542 20
    endloop
  endfacet
  facet normal 0.913544 -0.40674 0
    outer loop
      vertex 21.6506 -12.5 40
      vertex 23.7764 -7.72542 20
      vertex 23.7764 -7.72542 40
    endloop
  endfacet
  facet normal 0.913544 -0.40674 0
    outer loop
      vertex 23.7764 -7.72542 20
      vertex 21.6506 -12.5 40
      vertex 21.6506 -12.5 20
    endloop
  endfacet
  facet normal 0.669123 -0.743151 0
    outer loop
      vertex 14.6946 -20.2254 20
      vertex 18.5786 -16.7283 40
      vertex 14.6946 -20.2254 40
    endloop
  endfacet
  facet normal 0.669123 -0.743151 0
    outer loop
      vertex 18.5786 -16.7283 40
      vertex 14.6946 -20.2254 20
      vertex 18.5786 -16.7283 20
    endloop
  endfacet
  facet normal 0.5 -0.866026 0
    outer loop
      vertex 10.1684 -22.8386 20
      vertex 14.6946 -20.2254 40
      vertex 10.1684 -22.8386 40
    endloop
  endfacet
  facet normal 0.5 -0.866026 0
    outer loop
      vertex 14.6946 -20.2254 40
      vertex 10.1684 -22.8386 20
      vertex 14.6946 -20.2254 20
    endloop
  endfacet
  facet normal 0.104527 -0.994522 0
    outer loop
      vertex 0 -25 20
      vertex 5.19779 -24.4537 40
      vertex 0 -25 40
    endloop
  endfacet
  facet normal 0.104527 -0.994522 0
    outer loop
      vertex 5.19779 -24.4537 40
      vertex 0 -25 20
      vertex 5.19779 -24.4537 20
    endloop
  endfacet
  facet normal 0.913544 0.40674 0
    outer loop
      vertex 23.7764 7.72542 40
      vertex 21.6506 12.5 20
      vertex 21.6506 12.5 40
    endloop
  endfacet
  facet normal 0.913544 0.40674 0
    outer loop
      vertex 21.6506 12.5 20
      vertex 23.7764 7.72542 40
      vertex 23.7764 7.72542 20
    endloop
  endfacet
  facet normal 0.809021 -0.58778 0
    outer loop
      vertex 18.5786 -16.7283 40
      vertex 21.6506 -12.5 20
      vertex 21.6506 -12.5 40
    endloop
  endfacet
  facet normal 0.809021 -0.58778 0
    outer loop
      vertex 21.6506 -12.5 20
      vertex 18.5786 -16.7283 40
      vertex 18.5786 -16.7283 20
    endloop
  endfacet
endsolid OpenSCAD_Model
