solid OpenSCAD_Model
  facet normal 0.854032 0.0897607 0.512419
    outer loop
      vertex 24.4537 5.19779 -20
      vertex 1 0 20
      vertex 25 0 -20
    endloop
  endfacet
  facet normal 0.854032 0.0897606 0.512419
    outer loop
      vertex 24.4537 5.19779 -20
      vertex 0.978148 0.207912 20
      vertex 1 0 20
    endloop
  endfacet
  facet normal 0.816704 0.265372 0.512419
    outer loop
      vertex 22.8386 10.1684 -20
      vertex 0.978148 0.207912 20
      vertex 24.4537 5.19779 -20
    endloop
  endfacet
  facet normal 0.816705 0.265367 0.512418
    outer loop
      vertex 22.8386 10.1684 -20
      vertex 0.913545 0.406737 20
      vertex 0.978148 0.207912 20
    endloop
  endfacet
  facet normal 0.743687 0.429368 0.512418
    outer loop
      vertex 20.2254 14.6946 -20
      vertex 0.913545 0.406737 20
      vertex 22.8386 10.1684 -20
    endloop
  endfacet
  facet normal 0.743687 0.429368 0.512418
    outer loop
      vertex 20.2254 14.6946 -20
      vertex 0.809017 0.587785 20
      vertex 0.913545 0.406737 20
    endloop
  endfacet
  facet normal 0.638171 0.5746 0.512419
    outer loop
      vertex 16.7283 18.5786 -20
      vertex 0.809017 0.587785 20
      vertex 20.2254 14.6946 -20
    endloop
  endfacet
  facet normal 0.638167 0.574605 0.512419
    outer loop
      vertex 16.7283 18.5786 -20
      vertex 0.669131 0.743145 20
      vertex 0.809017 0.587785 20
    endloop
  endfacet
  facet normal 0.504748 0.694735 0.512419
    outer loop
      vertex 12.5 21.6506 -20
      vertex 0.669131 0.743145 20
      vertex 16.7283 18.5786 -20
    endloop
  endfacet
  facet normal 0.50475 0.694734 0.512419
    outer loop
      vertex 12.5 21.6506 -20
      vertex 0.5 0.866025 20
      vertex 0.669131 0.743145 20
    endloop
  endfacet
  facet normal 0.349282 0.784493 0.512418
    outer loop
      vertex 7.72542 23.7764 -20
      vertex 0.5 0.866025 20
      vertex 12.5 21.6506 -20
    endloop
  endfacet
  facet normal 0.349282 0.784493 0.512418
    outer loop
      vertex 7.72542 23.7764 -20
      vertex 0.309017 0.951057 20
      vertex 0.5 0.866025 20
    endloop
  endfacet
  facet normal 0.178536 0.839972 0.512418
    outer loop
      vertex 2.61321 24.863 -20
      vertex 0.309017 0.951057 20
      vertex 7.72542 23.7764 -20
    endloop
  endfacet
  facet normal 0.178539 0.839971 0.512418
    outer loop
      vertex 2.61321 24.863 -20
      vertex 0.104528 0.994522 20
      vertex 0.309017 0.951057 20
    endloop
  endfacet
  facet normal -0 0.858736 0.512418
    outer loop
      vertex -2.61321 24.863 -20
      vertex 0.104528 0.994522 20
      vertex 2.61321 24.863 -20
    endloop
  endfacet
  facet normal 0 0.858736 0.512418
    outer loop
      vertex -2.61321 24.863 -20
      vertex -0.104528 0.994522 20
      vertex 0.104528 0.994522 20
    endloop
  endfacet
  facet normal -0.178536 0.839972 0.512418
    outer loop
      vertex -7.72542 23.7764 -20
      vertex -0.104528 0.994522 20
      vertex -2.61321 24.863 -20
    endloop
  endfacet
  facet normal -0.178539 0.839971 0.512419
    outer loop
      vertex -7.72542 23.7764 -20
      vertex -0.309017 0.951057 20
      vertex -0.104528 0.994522 20
    endloop
  endfacet
  facet normal -0.349282 0.784493 0.512418
    outer loop
      vertex -12.5 21.6506 -20
      vertex -0.309017 0.951057 20
      vertex -7.72542 23.7764 -20
    endloop
  endfacet
  facet normal -0.349282 0.784493 0.512418
    outer loop
      vertex -12.5 21.6506 -20
      vertex -0.5 0.866025 20
      vertex -0.309017 0.951057 20
    endloop
  endfacet
  facet normal -0.504748 0.694735 0.512419
    outer loop
      vertex -16.7283 18.5786 -20
      vertex -0.5 0.866025 20
      vertex -12.5 21.6506 -20
    endloop
  endfacet
  facet normal -0.50475 0.694733 0.512419
    outer loop
      vertex -16.7283 18.5786 -20
      vertex -0.669131 0.743145 20
      vertex -0.5 0.866025 20
    endloop
  endfacet
  facet normal -0.638171 0.5746 0.512419
    outer loop
      vertex -20.2254 14.6946 -20
      vertex -0.669131 0.743145 20
      vertex -16.7283 18.5786 -20
    endloop
  endfacet
  facet normal -0.638167 0.574605 0.512418
    outer loop
      vertex -20.2254 14.6946 -20
      vertex -0.809017 0.587785 20
      vertex -0.669131 0.743145 20
    endloop
  endfacet
  facet normal -0.743687 0.429368 0.512418
    outer loop
      vertex -22.8386 10.1684 -20
      vertex -0.809017 0.587785 20
      vertex -20.2254 14.6946 -20
    endloop
  endfacet
  facet normal -0.743687 0.429368 0.512418
    outer loop
      vertex -22.8386 10.1684 -20
      vertex -0.913545 0.406737 20
      vertex -0.809017 0.587785 20
    endloop
  endfacet
  facet normal -0.816704 0.265372 0.512419
    outer loop
      vertex -24.4537 5.19779 -20
      vertex -0.913545 0.406737 20
      vertex -22.8386 10.1684 -20
    endloop
  endfacet
  facet normal -0.816705 0.265367 0.512419
    outer loop
      vertex -24.4537 5.19779 -20
      vertex -0.978148 0.207912 20
      vertex -0.913545 0.406737 20
    endloop
  endfacet
  facet normal -0.854032 0.0897607 0.512419
    outer loop
      vertex -25 -0 -20
      vertex -0.978148 0.207912 20
      vertex -24.4537 5.19779 -20
    endloop
  endfacet
  facet normal -0.854032 0.0897606 0.512419
    outer loop
      vertex -25 -0 -20
      vertex -1 -0 20
      vertex -0.978148 0.207912 20
    endloop
  endfacet
  facet normal -0.854032 -0.0897607 0.512419
    outer loop
      vertex -24.4537 -5.19779 -20
      vertex -1 -0 20
      vertex -25 -0 -20
    endloop
  endfacet
  facet normal -0.854032 -0.0897606 0.512419
    outer loop
      vertex -24.4537 -5.19779 -20
      vertex -0.978148 -0.207912 20
      vertex -1 -0 20
    endloop
  endfacet
  facet normal -0.816704 -0.265372 0.512419
    outer loop
      vertex -22.8386 -10.1684 -20
      vertex -0.978148 -0.207912 20
      vertex -24.4537 -5.19779 -20
    endloop
  endfacet
  facet normal -0.816705 -0.265367 0.512418
    outer loop
      vertex -22.8386 -10.1684 -20
      vertex -0.913545 -0.406737 20
      vertex -0.978148 -0.207912 20
    endloop
  endfacet
  facet normal -0.743687 -0.429368 0.512418
    outer loop
      vertex -20.2254 -14.6946 -20
      vertex -0.913545 -0.406737 20
      vertex -22.8386 -10.1684 -20
    endloop
  endfacet
  facet normal -0.743687 -0.429368 0.512418
    outer loop
      vertex -20.2254 -14.6946 -20
      vertex -0.809017 -0.587785 20
      vertex -0.913545 -0.406737 20
    endloop
  endfacet
  facet normal -0.638171 -0.5746 0.512419
    outer loop
      vertex -16.7283 -18.5786 -20
      vertex -0.809017 -0.587785 20
      vertex -20.2254 -14.6946 -20
    endloop
  endfacet
  facet normal -0.638167 -0.574605 0.512419
    outer loop
      vertex -16.7283 -18.5786 -20
      vertex -0.669131 -0.743145 20
      vertex -0.809017 -0.587785 20
    endloop
  endfacet
  facet normal -0.504748 -0.694735 0.512419
    outer loop
      vertex -12.5 -21.6506 -20
      vertex -0.669131 -0.743145 20
      vertex -16.7283 -18.5786 -20
    endloop
  endfacet
  facet normal -0.50475 -0.694734 0.512419
    outer loop
      vertex -12.5 -21.6506 -20
      vertex -0.5 -0.866025 20
      vertex -0.669131 -0.743145 20
    endloop
  endfacet
  facet normal -0.349282 -0.784493 0.512418
    outer loop
      vertex -7.72542 -23.7764 -20
      vertex -0.5 -0.866025 20
      vertex -12.5 -21.6506 -20
    endloop
  endfacet
  facet normal -0.349282 -0.784493 0.512418
    outer loop
      vertex -7.72542 -23.7764 -20
      vertex -0.309017 -0.951057 20
      vertex -0.5 -0.866025 20
    endloop
  endfacet
  facet normal -0.178536 -0.839972 0.512418
    outer loop
      vertex -2.61321 -24.863 -20
      vertex -0.309017 -0.951057 20
      vertex -7.72542 -23.7764 -20
    endloop
  endfacet
  facet normal -0.178539 -0.839971 0.512418
    outer loop
      vertex -2.61321 -24.863 -20
      vertex -0.104528 -0.994522 20
      vertex -0.309017 -0.951057 20
    endloop
  endfacet
  facet normal 0 -0.858736 0.512418
    outer loop
      vertex 2.61321 -24.863 -20
      vertex -0.104528 -0.994522 20
      vertex -2.61321 -24.863 -20
    endloop
  endfacet
  facet normal 0 -0.858736 0.512418
    outer loop
      vertex 2.61321 -24.863 -20
      vertex 0.104528 -0.994522 20
      vertex -0.104528 -0.994522 20
    endloop
  endfacet
  facet normal 0.178536 -0.839972 0.512418
    outer loop
      vertex 7.72542 -23.7764 -20
      vertex 0.104528 -0.994522 20
      vertex 2.61321 -24.863 -20
    endloop
  endfacet
  facet normal 0.178539 -0.839971 0.512419
    outer loop
      vertex 7.72542 -23.7764 -20
      vertex 0.309017 -0.951057 20
      vertex 0.104528 -0.994522 20
    endloop
  endfacet
  facet normal 0.349282 -0.784493 0.512418
    outer loop
      vertex 12.5 -21.6506 -20
      vertex 0.309017 -0.951057 20
      vertex 7.72542 -23.7764 -20
    endloop
  endfacet
  facet normal 0.349282 -0.784493 0.512418
    outer loop
      vertex 12.5 -21.6506 -20
      vertex 0.5 -0.866025 20
      vertex 0.309017 -0.951057 20
    endloop
  endfacet
  facet normal 0.504748 -0.694735 0.512419
    outer loop
      vertex 16.7283 -18.5786 -20
      vertex 0.5 -0.866025 20
      vertex 12.5 -21.6506 -20
    endloop
  endfacet
  facet normal 0.50475 -0.694733 0.512419
    outer loop
      vertex 16.7283 -18.5786 -20
      vertex 0.669131 -0.743145 20
      vertex 0.5 -0.866025 20
    endloop
  endfacet
  facet normal 0.638171 -0.5746 0.512419
    outer loop
      vertex 20.2254 -14.6946 -20
      vertex 0.669131 -0.743145 20
      vertex 16.7283 -18.5786 -20
    endloop
  endfacet
  facet normal 0.638167 -0.574605 0.512418
    outer loop
      vertex 20.2254 -14.6946 -20
      vertex 0.809017 -0.587785 20
      vertex 0.669131 -0.743145 20
    endloop
  endfacet
  facet normal 0.743687 -0.429368 0.512418
    outer loop
      vertex 22.8386 -10.1684 -20
      vertex 0.809017 -0.587785 20
      vertex 20.2254 -14.6946 -20
    endloop
  endfacet
  facet normal 0.743687 -0.429368 0.512418
    outer loop
      vertex 22.8386 -10.1684 -20
      vertex 0.913545 -0.406737 20
      vertex 0.809017 -0.587785 20
    endloop
  endfacet
  facet normal 0.816704 -0.265372 0.512419
    outer loop
      vertex 24.4537 -5.19779 -20
      vertex 0.913545 -0.406737 20
      vertex 22.8386 -10.1684 -20
    endloop
  endfacet
  facet normal 0.816705 -0.265367 0.512419
    outer loop
      vertex 24.4537 -5.19779 -20
      vertex 0.978148 -0.207912 20
      vertex 0.913545 -0.406737 20
    endloop
  endfacet
  facet normal 0.854032 -0.0897607 0.512419
    outer loop
      vertex 25 0 -20
      vertex 0.978148 -0.207912 20
      vertex 24.4537 -5.19779 -20
    endloop
  endfacet
  facet normal 0.854032 -0.0897606 0.512419
    outer loop
      vertex 25 0 -20
      vertex 1 0 20
      vertex 0.978148 -0.207912 20
    endloop
  endfacet
  facet normal 0 0 -1
    outer loop
      vertex 24.4537 -5.19779 -20
      vertex 24.4537 5.19779 -20
      vertex 25 0 -20
    endloop
  endfacet
  facet normal 0 0 -1
    outer loop
      vertex 22.8386 -10.1684 -20
      vertex 24.4537 5.19779 -20
      vertex 24.4537 -5.19779 -20
    endloop
  endfacet
  facet normal 0 0 -1
    outer loop
      vertex 22.8386 -10.1684 -20
      vertex 22.8386 10.1684 -20
      vertex 24.4537 5.19779 -20
    endloop
  endfacet
  facet normal 0 0 -1
    outer loop
      vertex 20.2254 -14.6946 -20
      vertex 22.8386 10.1684 -20
      vertex 22.8386 -10.1684 -20
    endloop
  endfacet
  facet normal 0 0 -1
    outer loop
      vertex 20.2254 -14.6946 -20
      vertex 20.2254 14.6946 -20
      vertex 22.8386 10.1684 -20
    endloop
  endfacet
  facet normal 0 0 -1
    outer loop
      vertex 16.7283 -18.5786 -20
      vertex 20.2254 14.6946 -20
      vertex 20.2254 -14.6946 -20
    endloop
  endfacet
  facet normal 0 0 -1
    outer loop
      vertex 16.7283 -18.5786 -20
      vertex 16.7283 18.5786 -20
      vertex 20.2254 14.6946 -20
    endloop
  endfacet
  facet normal 0 0 -1
    outer loop
      vertex 12.5 -21.6506 -20
      vertex 16.7283 18.5786 -20
      vertex 16.7283 -18.5786 -20
    endloop
  endfacet
  facet normal 0 0 -1
    outer loop
      vertex 12.5 -21.6506 -20
      vertex 12.5 21.6506 -20
      vertex 16.7283 18.5786 -20
    endloop
  endfacet
  facet normal 0 0 -1
    outer loop
      vertex 7.72542 -23.7764 -20
      vertex 12.5 21.6506 -20
      vertex 12.5 -21.6506 -20
    endloop
  endfacet
  facet normal 0 0 -1
    outer loop
      vertex 7.72542 -23.7764 -20
      vertex 7.72542 23.7764 -20
      vertex 12.5 21.6506 -20
    endloop
  endfacet
  facet normal 0 0 -1
    outer loop
      vertex 2.61321 -24.863 -20
      vertex 7.72542 23.7764 -20
      vertex 7.72542 -23.7764 -20
    endloop
  endfacet
  facet normal 0 0 -1
    outer loop
      vertex 2.61321 -24.863 -20
      vertex 2.61321 24.863 -20
      vertex 7.72542 23.7764 -20
    endloop
  endfacet
  facet normal 0 0 -1
    outer loop
      vertex -2.61321 -24.863 -20
      vertex 2.61321 24.863 -20
      vertex 2.61321 -24.863 -20
    endloop
  endfacet
  facet normal 0 0 -1
    outer loop
      vertex -2.61321 -24.863 -20
      vertex -2.61321 24.863 -20
      vertex 2.61321 24.863 -20
    endloop
  endfacet
  facet normal 0 0 -1
    outer loop
      vertex -7.72542 -23.7764 -20
      vertex -2.61321 24.863 -20
      vertex -2.61321 -24.863 -20
    endloop
  endfacet
  facet normal 0 0 -1
    outer loop
      vertex -7.72542 -23.7764 -20
      vertex -7.72542 23.7764 -20
      vertex -2.61321 24.863 -20
    endloop
  endfacet
  facet normal 0 0 -1
    outer loop
      vertex -12.5 -21.6506 -20
      vertex -7.72542 23.7764 -20
      vertex -7.72542 -23.7764 -20
    endloop
  endfacet
  facet normal 0 0 -1
    outer loop
      vertex -12.5 -21.6506 -20
      vertex -12.5 21.6506 -20
      vertex -7.72542 23.7764 -20
    endloop
  endfacet
  facet normal 0 0 -1
    outer loop
      vertex -16.7283 -18.5786 -20
      vertex -12.5 21.6506 -20
      vertex -12.5 -21.6506 -20
    endloop
  endfacet
  facet normal 0 0 -1
    outer loop
      vertex -16.7283 -18.5786 -20
      vertex -16.7283 18.5786 -20
      vertex -12.5 21.6506 -20
    endloop
  endfacet
  facet normal 0 0 -1
    outer loop
      vertex -20.2254 -14.6946 -20
      vertex -16.7283 18.5786 -20
      vertex -16.7283 -18.5786 -20
    endloop
  endfacet
  facet normal 0 0 -1
    outer loop
      vertex -20.2254 -14.6946 -20
      vertex -20.2254 14.6946 -20
      vertex -16.7283 18.5786 -20
    endloop
  endfacet
  facet normal 0 0 -1
    outer loop
      vertex -22.8386 -10.1684 -20
      vertex -20.2254 14.6946 -20
      vertex -20.2254 -14.6946 -20
    endloop
  endfacet
  facet normal 0 0 -1
    outer loop
      vertex -22.8386 -10.1684 -20
      vertex -22.8386 10.1684 -20
      vertex -20.2254 14.6946 -20
    endloop
  endfacet
  facet normal 0 0 -1
    outer loop
      vertex -24.4537 -5.19779 -20
      vertex -22.8386 10.1684 -20
      vertex -22.8386 -10.1684 -20
    endloop
  endfacet
  facet normal 0 0 -1
    outer loop
      vertex -24.4537 -5.19779 -20
      vertex -24.4537 5.19779 -20
      vertex -22.8386 10.1684 -20
    endloop
  endfacet
  facet normal 0 -0 -1
    outer loop
      vertex -24.4537 5.19779 -20
      vertex -24.4537 -5.19779 -20
      vertex -25 -0 -20
    endloop
  endfacet
  facet normal 0 0 1
    outer loop
      vertex 0.978148 0.207912 20
      vertex 0.978148 -0.207912 20
      vertex 1 0 20
    endloop
  endfacet
  facet normal 0 0 1
    outer loop
      vertex 0.913545 0.406737 20
      vertex 0.978148 -0.207912 20
      vertex 0.978148 0.207912 20
    endloop
  endfacet
  facet normal 0 0 1
    outer loop
      vertex 0.913545 0.406737 20
      vertex 0.913545 -0.406737 20
      vertex 0.978148 -0.207912 20
    endloop
  endfacet
  facet normal 0 0 1
    outer loop
      vertex 0.809017 0.587785 20
      vertex 0.913545 -0.406737 20
      vertex 0.913545 0.406737 20
    endloop
  endfacet
  facet normal 0 0 1
    outer loop
      vertex 0.809017 0.587785 20
      vertex 0.809017 -0.587785 20
      vertex 0.913545 -0.406737 20
    endloop
  endfacet
  facet normal 0 0 1
    outer loop
      vertex 0.669131 0.743145 20
      vertex 0.809017 -0.587785 20
      vertex 0.809017 0.587785 20
    endloop
  endfacet
  facet normal 0 0 1
    outer loop
      vertex 0.669131 0.743145 20
      vertex 0.669131 -0.743145 20
      vertex 0.809017 -0.587785 20
    endloop
  endfacet
  facet normal 0 0 1
    outer loop
      vertex 0.5 0.866025 20
      vertex 0.669131 -0.743145 20
      vertex 0.669131 0.743145 20
    endloop
  endfacet
  facet normal 0 0 1
    outer loop
      vertex 0.5 0.866025 20
      vertex 0.5 -0.866025 20
      vertex 0.669131 -0.743145 20
    endloop
  endfacet
  facet normal 0 0 1
    outer loop
      vertex 0.309017 0.951057 20
      vertex 0.5 -0.866025 20
      vertex 0.5 0.866025 20
    endloop
  endfacet
  facet normal 0 0 1
    outer loop
      vertex 0.309017 0.951057 20
      vertex 0.309017 -0.951057 20
      vertex 0.5 -0.866025 20
    endloop
  endfacet
  facet normal 0 0 1
    outer loop
      vertex 0.104528 0.994522 20
      vertex 0.309017 -0.951057 20
      vertex 0.309017 0.951057 20
    endloop
  endfacet
  facet normal 0 0 1
    outer loop
      vertex 0.104528 0.994522 20
      vertex 0.104528 -0.994522 20
      vertex 0.309017 -0.951057 20
    endloop
  endfacet
  facet normal -0 0 1
    outer loop
      vertex -0.104528 0.994522 20
      vertex 0.104528 -0.994522 20
      vertex 0.104528 0.994522 20
    endloop
  endfacet
  facet normal 0 0 1
    outer loop
      vertex -0.104528 0.994522 20
      vertex -0.104528 -0.994522 20
      vertex 0.104528 -0.994522 20
    endloop
  endfacet
  facet normal -0 0 1
    outer loop
      vertex -0.309017 0.951057 20
      vertex -0.104528 -0.994522 20
      vertex -0.104528 0.994522 20
    endloop
  endfacet
  facet normal 0 0 1
    outer loop
      vertex -0.309017 0.951057 20
      vertex -0.309017 -0.951057 20
      vertex -0.104528 -0.994522 20
    endloop
  endfacet
  facet normal -0 0 1
    outer loop
      vertex -0.5 0.866025 20
      vertex -0.309017 -0.951057 20
      vertex -0.309017 0.951057 20
    endloop
  endfacet
  facet normal 0 0 1
    outer loop
      vertex -0.5 0.866025 20
      vertex -0.5 -0.866025 20
      vertex -0.309017 -0.951057 20
    endloop
  endfacet
  facet normal -0 0 1
    outer loop
      vertex -0.669131 0.743145 20
      vertex -0.5 -0.866025 20
      vertex -0.5 0.866025 20
    endloop
  endfacet
  facet normal 0 0 1
    outer loop
      vertex -0.669131 0.743145 20
      vertex -0.669131 -0.743145 20
      vertex -0.5 -0.866025 20
    endloop
  endfacet
  facet normal -0 0 1
    outer loop
      vertex -0.809017 0.587785 20
      vertex -0.669131 -0.743145 20
      vertex -0.669131 0.743145 20
    endloop
  endfacet
  facet normal 0 0 1
    outer loop
      vertex -0.809017 0.587785 20
      vertex -0.809017 -0.587785 20
      vertex -0.669131 -0.743145 20
    endloop
  endfacet
  facet normal -0 0 1
    outer loop
      vertex -0.913545 0.406737 20
      vertex -0.809017 -0.587785 20
      vertex -0.809017 0.587785 20
    endloop
  endfacet
  facet normal 0 0 1
    outer loop
      vertex -0.913545 0.406737 20
      vertex -0.913545 -0.406737 20
      vertex -0.809017 -0.587785 20
    endloop
  endfacet
  facet normal -0 0 1
    outer loop
      vertex -0.978148 0.207912 20
      vertex -0.913545 -0.406737 20
      vertex -0.913545 0.406737 20
    endloop
  endfacet
  facet normal 0 0 1
    outer loop
      vertex -0.978148 0.207912 20
      vertex -0.978148 -0.207912 20
      vertex -0.913545 -0.406737 20
    endloop
  endfacet
  facet normal 0 -0 1
    outer loop
      vertex -0.978148 -0.207912 20
      vertex -0.978148 0.207912 20
      vertex -1 -0 20
    endloop
  endfacet
endsolid OpenSCAD_Model
